<?xml version="1.0" encoding="UTF-8" standalone="no"?>
<!DOCTYPE svg PUBLIC "-//W3C//DTD SVG 1.1//EN"
 "http://www.w3.org/Graphics/SVG/1.1/DTD/svg11.dtd">
<!-- Generated by graphviz version 5.0.0 (20220707.1540)
 -->
<!-- Title: controllers_diagram Pages: 1 -->
<svg width="1004pt" height="970pt"
 viewBox="0.00 0.00 1004.00 970.00" xmlns="http://www.w3.org/2000/svg" xmlns:xlink="http://www.w3.org/1999/xlink">
<g id="graph0" class="graph" transform="scale(1 1) rotate(0) translate(4 966)">
<title>controllers_diagram</title>
<polygon fill="transparent" stroke="transparent" points="-4,4 -4,-966 1000,-966 1000,4 -4,4"/>
<!-- _diagram_info -->
<g id="node1" class="node">
<title>_diagram_info</title>
<text text-anchor="start" x="790" y="-556.6" font-family="Times,serif" font-size="13.00">Controllers diagram</text>
<text text-anchor="start" x="790" y="-542.6" font-family="Times,serif" font-size="13.00">Date: Aug 13 2022 &#45; 20:46</text>
<text text-anchor="start" x="790" y="-528.6" font-family="Times,serif" font-size="13.00">Migration version: 20220813122813</text>
<text text-anchor="start" x="790" y="-514.6" font-family="Times,serif" font-size="13.00">Generated by RailRoady 1.6.0</text>
<text text-anchor="start" x="790" y="-500.6" font-family="Times,serif" font-size="13.00">http://railroady.prestonlee.com</text>
</g>
<!-- ActiveStorage::Blobs::RedirectController -->
<g id="node2" class="node">
<title>ActiveStorage::Blobs::RedirectController</title>
<path fill="none" stroke="black" d="M301,-561.5C301,-561.5 519,-561.5 519,-561.5 525,-561.5 531,-567.5 531,-573.5 531,-573.5 531,-657.5 531,-657.5 531,-663.5 525,-669.5 519,-669.5 519,-669.5 301,-669.5 301,-669.5 295,-669.5 289,-663.5 289,-657.5 289,-657.5 289,-573.5 289,-573.5 289,-567.5 295,-561.5 301,-561.5"/>
<text text-anchor="middle" x="410" y="-654.3" font-family="Times,serif" font-size="14.00">ActiveStorage::Blobs::RedirectController</text>
<polyline fill="none" stroke="black" points="289,-646.5 531,-646.5 "/>
<text text-anchor="start" x="297" y="-631.3" font-family="Times,serif" font-size="14.00">authorize_user</text>
<text text-anchor="start" x="297" y="-616.3" font-family="Times,serif" font-size="14.00">show</text>
<polyline fill="none" stroke="black" points="289,-608.5 531,-608.5 "/>
<polyline fill="none" stroke="black" points="289,-584.5 531,-584.5 "/>
<text text-anchor="start" x="297" y="-569.3" font-family="Times,serif" font-size="14.00">_layout</text>
</g>
<!-- ActiveStorage::DiskController -->
<g id="node3" class="node">
<title>ActiveStorage::DiskController</title>
<path fill="none" stroke="black" d="M573,-493.5C573,-493.5 731,-493.5 731,-493.5 737,-493.5 743,-499.5 743,-505.5 743,-505.5 743,-664.5 743,-664.5 743,-670.5 737,-676.5 731,-676.5 731,-676.5 573,-676.5 573,-676.5 567,-676.5 561,-670.5 561,-664.5 561,-664.5 561,-505.5 561,-505.5 561,-499.5 567,-493.5 573,-493.5"/>
<text text-anchor="middle" x="652" y="-661.3" font-family="Times,serif" font-size="14.00">ActiveStorage::DiskController</text>
<polyline fill="none" stroke="black" points="561,-653.5 743,-653.5 "/>
<text text-anchor="start" x="569" y="-638.3" font-family="Times,serif" font-size="14.00">show</text>
<text text-anchor="start" x="569" y="-623.3" font-family="Times,serif" font-size="14.00">update</text>
<polyline fill="none" stroke="black" points="561,-615.5 743,-615.5 "/>
<polyline fill="none" stroke="black" points="561,-591.5 743,-591.5 "/>
<text text-anchor="start" x="569" y="-576.3" font-family="Times,serif" font-size="14.00">_layout</text>
<text text-anchor="start" x="569" y="-561.3" font-family="Times,serif" font-size="14.00">acceptable_content?</text>
<text text-anchor="start" x="569" y="-546.3" font-family="Times,serif" font-size="14.00">authorize_user</text>
<text text-anchor="start" x="569" y="-531.3" font-family="Times,serif" font-size="14.00">decode_verified_key</text>
<text text-anchor="start" x="569" y="-516.3" font-family="Times,serif" font-size="14.00">decode_verified_token</text>
<text text-anchor="start" x="569" y="-501.3" font-family="Times,serif" font-size="14.00">named_disk_service</text>
</g>
<!-- Admin::AdminController -->
<g id="node4" class="node">
<title>Admin::AdminController</title>
<path fill="none" stroke="black" d="M12,-0.5C12,-0.5 144,-0.5 144,-0.5 150,-0.5 156,-6.5 156,-12.5 156,-12.5 156,-82.5 156,-82.5 156,-88.5 150,-94.5 144,-94.5 144,-94.5 12,-94.5 12,-94.5 6,-94.5 0,-88.5 0,-82.5 0,-82.5 0,-12.5 0,-12.5 0,-6.5 6,-0.5 12,-0.5"/>
<text text-anchor="middle" x="78" y="-79.3" font-family="Times,serif" font-size="14.00">Admin::AdminController</text>
<polyline fill="none" stroke="black" points="0,-71.5 156,-71.5 "/>
<polyline fill="none" stroke="black" points="0,-47.5 156,-47.5 "/>
<polyline fill="none" stroke="black" points="0,-23.5 156,-23.5 "/>
<text text-anchor="start" x="8" y="-8.3" font-family="Times,serif" font-size="14.00">authenticate_admin</text>
</g>
<!-- Admin::ReportsController -->
<g id="node5" class="node">
<title>Admin::ReportsController</title>
<path fill="none" stroke="black" d="M165,-697.5C165,-697.5 301,-697.5 301,-697.5 307,-697.5 313,-703.5 313,-709.5 313,-709.5 313,-823.5 313,-823.5 313,-829.5 307,-835.5 301,-835.5 301,-835.5 165,-835.5 165,-835.5 159,-835.5 153,-829.5 153,-823.5 153,-823.5 153,-709.5 153,-709.5 153,-703.5 159,-697.5 165,-697.5"/>
<text text-anchor="middle" x="233" y="-820.3" font-family="Times,serif" font-size="14.00">Admin::ReportsController</text>
<polyline fill="none" stroke="black" points="153,-812.5 313,-812.5 "/>
<text text-anchor="start" x="161" y="-797.3" font-family="Times,serif" font-size="14.00">apipie_validations</text>
<text text-anchor="start" x="161" y="-782.3" font-family="Times,serif" font-size="14.00">index</text>
<text text-anchor="start" x="161" y="-767.3" font-family="Times,serif" font-size="14.00">resolve</text>
<polyline fill="none" stroke="black" points="153,-759.5 313,-759.5 "/>
<polyline fill="none" stroke="black" points="153,-735.5 313,-735.5 "/>
<text text-anchor="start" x="161" y="-720.3" font-family="Times,serif" font-size="14.00">find_report</text>
<text text-anchor="start" x="161" y="-705.3" font-family="Times,serif" font-size="14.00">reports</text>
</g>
<!-- Admin::UsersController -->
<g id="node6" class="node">
<title>Admin::UsersController</title>
<path fill="none" stroke="black" d="M437,-0.5C437,-0.5 562,-0.5 562,-0.5 568,-0.5 574,-6.5 574,-12.5 574,-12.5 574,-97.5 574,-97.5 574,-103.5 568,-109.5 562,-109.5 562,-109.5 437,-109.5 437,-109.5 431,-109.5 425,-103.5 425,-97.5 425,-97.5 425,-12.5 425,-12.5 425,-6.5 431,-0.5 437,-0.5"/>
<text text-anchor="middle" x="499.5" y="-94.3" font-family="Times,serif" font-size="14.00">Admin::UsersController</text>
<polyline fill="none" stroke="black" points="425,-86.5 574,-86.5 "/>
<text text-anchor="start" x="433" y="-71.3" font-family="Times,serif" font-size="14.00">apipie_validations</text>
<text text-anchor="start" x="433" y="-56.3" font-family="Times,serif" font-size="14.00">index</text>
<polyline fill="none" stroke="black" points="425,-48.5 574,-48.5 "/>
<polyline fill="none" stroke="black" points="425,-24.5 574,-24.5 "/>
</g>
<!-- ApplicationController -->
<g id="node7" class="node">
<title>ApplicationController</title>
<path fill="none" stroke="black" d="M845,-0.5C845,-0.5 957,-0.5 957,-0.5 963,-0.5 969,-6.5 969,-12.5 969,-12.5 969,-112.5 969,-112.5 969,-118.5 963,-124.5 957,-124.5 957,-124.5 845,-124.5 845,-124.5 839,-124.5 833,-118.5 833,-112.5 833,-112.5 833,-12.5 833,-12.5 833,-6.5 839,-0.5 845,-0.5"/>
<text text-anchor="middle" x="901" y="-109.3" font-family="Times,serif" font-size="14.00">ApplicationController</text>
<polyline fill="none" stroke="black" points="833,-101.5 969,-101.5 "/>
<text text-anchor="start" x="841" y="-86.3" font-family="Times,serif" font-size="14.00">authenticate_user!</text>
<text text-anchor="start" x="841" y="-71.3" font-family="Times,serif" font-size="14.00">paging</text>
<text text-anchor="start" x="841" y="-56.3" font-family="Times,serif" font-size="14.00">render_json</text>
<polyline fill="none" stroke="black" points="833,-48.5 969,-48.5 "/>
<polyline fill="none" stroke="black" points="833,-24.5 969,-24.5 "/>
</g>
<!-- Auth::ConfirmationsController -->
<g id="node8" class="node">
<title>Auth::ConfirmationsController</title>
<path fill="none" stroke="black" d="M80,-561.5C80,-561.5 241,-561.5 241,-561.5 247,-561.5 253,-567.5 253,-573.5 253,-573.5 253,-658.5 253,-658.5 253,-664.5 247,-670.5 241,-670.5 241,-670.5 80,-670.5 80,-670.5 74,-670.5 68,-664.5 68,-658.5 68,-658.5 68,-573.5 68,-573.5 68,-567.5 74,-561.5 80,-561.5"/>
<text text-anchor="middle" x="160.5" y="-655.3" font-family="Times,serif" font-size="14.00">Auth::ConfirmationsController</text>
<polyline fill="none" stroke="black" points="68,-647.5 253,-647.5 "/>
<text text-anchor="start" x="76" y="-632.3" font-family="Times,serif" font-size="14.00">apipie_validations</text>
<text text-anchor="start" x="76" y="-617.3" font-family="Times,serif" font-size="14.00">show</text>
<polyline fill="none" stroke="black" points="68,-609.5 253,-609.5 "/>
<polyline fill="none" stroke="black" points="68,-585.5 253,-585.5 "/>
</g>
<!-- Auth::OmniauthCallbacksController -->
<g id="node9" class="node">
<title>Auth::OmniauthCallbacksController</title>
<path fill="none" stroke="black" d="M658,-153.5C658,-153.5 849,-153.5 849,-153.5 855,-153.5 861,-159.5 861,-165.5 861,-165.5 861,-236.5 861,-236.5 861,-242.5 855,-248.5 849,-248.5 849,-248.5 658,-248.5 658,-248.5 652,-248.5 646,-242.5 646,-236.5 646,-236.5 646,-165.5 646,-165.5 646,-159.5 652,-153.5 658,-153.5"/>
<text text-anchor="middle" x="753.5" y="-233.3" font-family="Times,serif" font-size="14.00">Auth::OmniauthCallbacksController</text>
<polyline fill="none" stroke="black" points="646,-225.5 861,-225.5 "/>
<polyline fill="none" stroke="black" points="646,-201.5 861,-201.5 "/>
<polyline fill="none" stroke="black" points="646,-177.5 861,-177.5 "/>
</g>
<!-- Auth::PasswordsController -->
<g id="node10" class="node">
<title>Auth::PasswordsController</title>
<path fill="none" stroke="black" d="M828,-289.5C828,-289.5 968,-289.5 968,-289.5 974,-289.5 980,-295.5 980,-301.5 980,-301.5 980,-401.5 980,-401.5 980,-407.5 974,-413.5 968,-413.5 968,-413.5 828,-413.5 828,-413.5 822,-413.5 816,-407.5 816,-401.5 816,-401.5 816,-301.5 816,-301.5 816,-295.5 822,-289.5 828,-289.5"/>
<text text-anchor="middle" x="898" y="-398.3" font-family="Times,serif" font-size="14.00">Auth::PasswordsController</text>
<polyline fill="none" stroke="black" points="816,-390.5 980,-390.5 "/>
<text text-anchor="start" x="824" y="-375.3" font-family="Times,serif" font-size="14.00">apipie_validations</text>
<text text-anchor="start" x="824" y="-360.3" font-family="Times,serif" font-size="14.00">create</text>
<text text-anchor="start" x="824" y="-345.3" font-family="Times,serif" font-size="14.00">update</text>
<polyline fill="none" stroke="black" points="816,-337.5 980,-337.5 "/>
<polyline fill="none" stroke="black" points="816,-313.5 980,-313.5 "/>
</g>
<!-- Auth::RegistrationsController -->
<g id="node11" class="node">
<title>Auth::RegistrationsController</title>
<path fill="none" stroke="black" d="M726,-714.5C726,-714.5 880,-714.5 880,-714.5 886,-714.5 892,-720.5 892,-726.5 892,-726.5 892,-841.5 892,-841.5 892,-847.5 886,-853.5 880,-853.5 880,-853.5 726,-853.5 726,-853.5 720,-853.5 714,-847.5 714,-841.5 714,-841.5 714,-726.5 714,-726.5 714,-720.5 720,-714.5 726,-714.5"/>
<text text-anchor="middle" x="803" y="-838.3" font-family="Times,serif" font-size="14.00">Auth::RegistrationsController</text>
<polyline fill="none" stroke="black" points="714,-830.5 892,-830.5 "/>
<text text-anchor="start" x="722" y="-815.3" font-family="Times,serif" font-size="14.00">apipie_validations</text>
<text text-anchor="start" x="722" y="-800.3" font-family="Times,serif" font-size="14.00">configure_sign_up_params</text>
<text text-anchor="start" x="722" y="-785.3" font-family="Times,serif" font-size="14.00">create</text>
<text text-anchor="start" x="722" y="-770.3" font-family="Times,serif" font-size="14.00">update</text>
<polyline fill="none" stroke="black" points="714,-762.5 892,-762.5 "/>
<polyline fill="none" stroke="black" points="714,-738.5 892,-738.5 "/>
</g>
<!-- Auth::SessionsController -->
<g id="node12" class="node">
<title>Auth::SessionsController</title>
<path fill="none" stroke="black" d="M658,-0.5C658,-0.5 787,-0.5 787,-0.5 793,-0.5 799,-6.5 799,-12.5 799,-12.5 799,-111.5 799,-111.5 799,-117.5 793,-123.5 787,-123.5 787,-123.5 658,-123.5 658,-123.5 652,-123.5 646,-117.5 646,-111.5 646,-111.5 646,-12.5 646,-12.5 646,-6.5 652,-0.5 658,-0.5"/>
<text text-anchor="middle" x="722.5" y="-108.3" font-family="Times,serif" font-size="14.00">Auth::SessionsController</text>
<polyline fill="none" stroke="black" points="646,-100.5 799,-100.5 "/>
<text text-anchor="start" x="654" y="-85.3" font-family="Times,serif" font-size="14.00">apipie_validations</text>
<text text-anchor="start" x="654" y="-70.3" font-family="Times,serif" font-size="14.00">create</text>
<text text-anchor="start" x="654" y="-55.3" font-family="Times,serif" font-size="14.00">destroy</text>
<polyline fill="none" stroke="black" points="646,-47.5 799,-47.5 "/>
<polyline fill="none" stroke="black" points="646,-23.5 799,-23.5 "/>
<text text-anchor="start" x="654" y="-8.3" font-family="Times,serif" font-size="14.00">respond_to_on_destroy</text>
</g>
<!-- Auth::UnlocksController -->
<g id="node13" class="node">
<title>Auth::UnlocksController</title>
<path fill="none" stroke="black" d="M199,-0.5C199,-0.5 327,-0.5 327,-0.5 333,-0.5 339,-6.5 339,-12.5 339,-12.5 339,-83.5 339,-83.5 339,-89.5 333,-95.5 327,-95.5 327,-95.5 199,-95.5 199,-95.5 193,-95.5 187,-89.5 187,-83.5 187,-83.5 187,-12.5 187,-12.5 187,-6.5 193,-0.5 199,-0.5"/>
<text text-anchor="middle" x="263" y="-80.3" font-family="Times,serif" font-size="14.00">Auth::UnlocksController</text>
<polyline fill="none" stroke="black" points="187,-72.5 339,-72.5 "/>
<polyline fill="none" stroke="black" points="187,-48.5 339,-48.5 "/>
<polyline fill="none" stroke="black" points="187,-24.5 339,-24.5 "/>
</g>
<!-- Chat::ConversationsController -->
<g id="node14" class="node">
<title>Chat::ConversationsController</title>
<path fill="none" stroke="black" d="M352,-697.5C352,-697.5 510,-697.5 510,-697.5 516,-697.5 522,-703.5 522,-709.5 522,-709.5 522,-838.5 522,-838.5 522,-844.5 516,-850.5 510,-850.5 510,-850.5 352,-850.5 352,-850.5 346,-850.5 340,-844.5 340,-838.5 340,-838.5 340,-709.5 340,-709.5 340,-703.5 346,-697.5 352,-697.5"/>
<text text-anchor="middle" x="431" y="-835.3" font-family="Times,serif" font-size="14.00">Chat::ConversationsController</text>
<polyline fill="none" stroke="black" points="340,-827.5 522,-827.5 "/>
<text text-anchor="start" x="348" y="-812.3" font-family="Times,serif" font-size="14.00">apipie_validations</text>
<text text-anchor="start" x="348" y="-797.3" font-family="Times,serif" font-size="14.00">index</text>
<text text-anchor="start" x="348" y="-782.3" font-family="Times,serif" font-size="14.00">seen_all</text>
<text text-anchor="start" x="348" y="-767.3" font-family="Times,serif" font-size="14.00">share_profile</text>
<polyline fill="none" stroke="black" points="340,-759.5 522,-759.5 "/>
<polyline fill="none" stroke="black" points="340,-735.5 522,-735.5 "/>
<text text-anchor="start" x="348" y="-720.3" font-family="Times,serif" font-size="14.00">load_conversation</text>
<text text-anchor="start" x="348" y="-705.3" font-family="Times,serif" font-size="14.00">mark_all_received_messages</text>
</g>
<!-- Chat::MessagesController -->
<g id="node15" class="node">
<title>Chat::MessagesController</title>
<path fill="none" stroke="black" d="M573,-289.5C573,-289.5 764,-289.5 764,-289.5 770,-289.5 776,-295.5 776,-301.5 776,-301.5 776,-445.5 776,-445.5 776,-451.5 770,-457.5 764,-457.5 764,-457.5 573,-457.5 573,-457.5 567,-457.5 561,-451.5 561,-445.5 561,-445.5 561,-301.5 561,-301.5 561,-295.5 567,-289.5 573,-289.5"/>
<text text-anchor="middle" x="668.5" y="-442.3" font-family="Times,serif" font-size="14.00">Chat::MessagesController</text>
<polyline fill="none" stroke="black" points="561,-434.5 776,-434.5 "/>
<text text-anchor="start" x="569" y="-419.3" font-family="Times,serif" font-size="14.00">apipie_validations</text>
<text text-anchor="start" x="569" y="-404.3" font-family="Times,serif" font-size="14.00">create</text>
<text text-anchor="start" x="569" y="-389.3" font-family="Times,serif" font-size="14.00">index</text>
<polyline fill="none" stroke="black" points="561,-381.5 776,-381.5 "/>
<polyline fill="none" stroke="black" points="561,-357.5 776,-357.5 "/>
<text text-anchor="start" x="569" y="-342.3" font-family="Times,serif" font-size="14.00">check_current_user_in_conversation</text>
<text text-anchor="start" x="569" y="-327.3" font-family="Times,serif" font-size="14.00">check_recipient_in_conversation</text>
<text text-anchor="start" x="569" y="-312.3" font-family="Times,serif" font-size="14.00">load_conversation</text>
<text text-anchor="start" x="569" y="-297.3" font-family="Times,serif" font-size="14.00">message_params</text>
</g>
<!-- GreetsController -->
<g id="node16" class="node">
<title>GreetsController</title>
<path fill="none" stroke="black" d="M590,-714.5C590,-714.5 673,-714.5 673,-714.5 679,-714.5 685,-720.5 685,-726.5 685,-726.5 685,-826.5 685,-826.5 685,-832.5 679,-838.5 673,-838.5 673,-838.5 590,-838.5 590,-838.5 584,-838.5 578,-832.5 578,-826.5 578,-826.5 578,-726.5 578,-726.5 578,-720.5 584,-714.5 590,-714.5"/>
<text text-anchor="middle" x="631.5" y="-823.3" font-family="Times,serif" font-size="14.00">GreetsController</text>
<polyline fill="none" stroke="black" points="578,-815.5 685,-815.5 "/>
<text text-anchor="start" x="586" y="-800.3" font-family="Times,serif" font-size="14.00">add_user</text>
<text text-anchor="start" x="586" y="-785.3" font-family="Times,serif" font-size="14.00">create</text>
<text text-anchor="start" x="586" y="-770.3" font-family="Times,serif" font-size="14.00">show</text>
<polyline fill="none" stroke="black" points="578,-762.5 685,-762.5 "/>
<polyline fill="none" stroke="black" points="578,-738.5 685,-738.5 "/>
</g>
<!-- IdentitiesController -->
<g id="node17" class="node">
<title>IdentitiesController</title>
<path fill="none" stroke="black" d="M12,-714.5C12,-714.5 110,-714.5 110,-714.5 116,-714.5 122,-720.5 122,-726.5 122,-726.5 122,-796.5 122,-796.5 122,-802.5 116,-808.5 110,-808.5 110,-808.5 12,-808.5 12,-808.5 6,-808.5 0,-802.5 0,-796.5 0,-796.5 0,-726.5 0,-726.5 0,-720.5 6,-714.5 12,-714.5"/>
<text text-anchor="middle" x="61" y="-793.3" font-family="Times,serif" font-size="14.00">IdentitiesController</text>
<polyline fill="none" stroke="black" points="0,-785.5 122,-785.5 "/>
<text text-anchor="start" x="8" y="-770.3" font-family="Times,serif" font-size="14.00">show</text>
<polyline fill="none" stroke="black" points="0,-762.5 122,-762.5 "/>
<polyline fill="none" stroke="black" points="0,-738.5 122,-738.5 "/>
</g>
<!-- Pairing::EnqueuingsController -->
<g id="node18" class="node">
<title>Pairing::EnqueuingsController</title>
<path fill="none" stroke="black" d="M437,-136.5C437,-136.5 595,-136.5 595,-136.5 601,-136.5 607,-142.5 607,-148.5 607,-148.5 607,-248.5 607,-248.5 607,-254.5 601,-260.5 595,-260.5 595,-260.5 437,-260.5 437,-260.5 431,-260.5 425,-254.5 425,-248.5 425,-248.5 425,-148.5 425,-148.5 425,-142.5 431,-136.5 437,-136.5"/>
<text text-anchor="middle" x="516" y="-245.3" font-family="Times,serif" font-size="14.00">Pairing::EnqueuingsController</text>
<polyline fill="none" stroke="black" points="425,-237.5 607,-237.5 "/>
<text text-anchor="start" x="433" y="-222.3" font-family="Times,serif" font-size="14.00">apipie_validations</text>
<text text-anchor="start" x="433" y="-207.3" font-family="Times,serif" font-size="14.00">create</text>
<text text-anchor="start" x="433" y="-192.3" font-family="Times,serif" font-size="14.00">destroy</text>
<polyline fill="none" stroke="black" points="425,-184.5 607,-184.5 "/>
<polyline fill="none" stroke="black" points="425,-160.5 607,-160.5 "/>
</g>
<!-- Pairing::UserSettingsController -->
<g id="node19" class="node">
<title>Pairing::UserSettingsController</title>
<path fill="none" stroke="black" d="M148,-136.5C148,-136.5 312,-136.5 312,-136.5 318,-136.5 324,-142.5 324,-148.5 324,-148.5 324,-262.5 324,-262.5 324,-268.5 318,-274.5 312,-274.5 312,-274.5 148,-274.5 148,-274.5 142,-274.5 136,-268.5 136,-262.5 136,-262.5 136,-148.5 136,-148.5 136,-142.5 142,-136.5 148,-136.5"/>
<text text-anchor="middle" x="230" y="-259.3" font-family="Times,serif" font-size="14.00">Pairing::UserSettingsController</text>
<polyline fill="none" stroke="black" points="136,-251.5 324,-251.5 "/>
<text text-anchor="start" x="144" y="-236.3" font-family="Times,serif" font-size="14.00">apipie_validations</text>
<text text-anchor="start" x="144" y="-221.3" font-family="Times,serif" font-size="14.00">show</text>
<text text-anchor="start" x="144" y="-206.3" font-family="Times,serif" font-size="14.00">update_or_create</text>
<polyline fill="none" stroke="black" points="136,-198.5 324,-198.5 "/>
<polyline fill="none" stroke="black" points="136,-174.5 324,-174.5 "/>
<text text-anchor="start" x="144" y="-159.3" font-family="Times,serif" font-size="14.00">set_user_setting</text>
<text text-anchor="start" x="144" y="-144.3" font-family="Times,serif" font-size="14.00">user_setting_params</text>
</g>
<!-- PartnersController -->
<g id="node20" class="node">
<title>PartnersController</title>
<path fill="none" stroke="black" d="M573,-867.5C573,-867.5 665,-867.5 665,-867.5 671,-867.5 677,-873.5 677,-879.5 677,-879.5 677,-949.5 677,-949.5 677,-955.5 671,-961.5 665,-961.5 665,-961.5 573,-961.5 573,-961.5 567,-961.5 561,-955.5 561,-949.5 561,-949.5 561,-879.5 561,-879.5 561,-873.5 567,-867.5 573,-867.5"/>
<text text-anchor="middle" x="619" y="-946.3" font-family="Times,serif" font-size="14.00">PartnersController</text>
<polyline fill="none" stroke="black" points="561,-938.5 677,-938.5 "/>
<text text-anchor="start" x="569" y="-923.3" font-family="Times,serif" font-size="14.00">index</text>
<polyline fill="none" stroke="black" points="561,-915.5 677,-915.5 "/>
<polyline fill="none" stroke="black" points="561,-891.5 677,-891.5 "/>
</g>
<!-- PostsController -->
<g id="node21" class="node">
<title>PostsController</title>
<path fill="none" stroke="black" d="M335,-306.5C335,-306.5 508,-306.5 508,-306.5 514,-306.5 520,-312.5 520,-318.5 520,-318.5 520,-507.5 520,-507.5 520,-513.5 514,-519.5 508,-519.5 508,-519.5 335,-519.5 335,-519.5 329,-519.5 323,-513.5 323,-507.5 323,-507.5 323,-318.5 323,-318.5 323,-312.5 329,-306.5 335,-306.5"/>
<text text-anchor="middle" x="421.5" y="-504.3" font-family="Times,serif" font-size="14.00">PostsController</text>
<polyline fill="none" stroke="black" points="323,-496.5 520,-496.5 "/>
<text text-anchor="start" x="331" y="-481.3" font-family="Times,serif" font-size="14.00">apipie_validations</text>
<text text-anchor="start" x="331" y="-466.3" font-family="Times,serif" font-size="14.00">create</text>
<text text-anchor="start" x="331" y="-451.3" font-family="Times,serif" font-size="14.00">destroy</text>
<text text-anchor="start" x="331" y="-436.3" font-family="Times,serif" font-size="14.00">index</text>
<text text-anchor="start" x="331" y="-421.3" font-family="Times,serif" font-size="14.00">toggle_react</text>
<text text-anchor="start" x="331" y="-406.3" font-family="Times,serif" font-size="14.00">update</text>
<polyline fill="none" stroke="black" points="323,-398.5 520,-398.5 "/>
<polyline fill="none" stroke="black" points="323,-374.5 520,-374.5 "/>
<text text-anchor="start" x="331" y="-359.3" font-family="Times,serif" font-size="14.00">check_permission_for_modify</text>
<text text-anchor="start" x="331" y="-344.3" font-family="Times,serif" font-size="14.00">check_permission_for_read_post</text>
<text text-anchor="start" x="331" y="-329.3" font-family="Times,serif" font-size="14.00">post_params</text>
<text text-anchor="start" x="331" y="-314.3" font-family="Times,serif" font-size="14.00">set_post</text>
</g>
<!-- ReportsController -->
<g id="node22" class="node">
<title>ReportsController</title>
<path fill="none" stroke="black" d="M12,-850.5C12,-850.5 104,-850.5 104,-850.5 110,-850.5 116,-856.5 116,-862.5 116,-862.5 116,-946.5 116,-946.5 116,-952.5 110,-958.5 104,-958.5 104,-958.5 12,-958.5 12,-958.5 6,-958.5 0,-952.5 0,-946.5 0,-946.5 0,-862.5 0,-862.5 0,-856.5 6,-850.5 12,-850.5"/>
<text text-anchor="middle" x="58" y="-943.3" font-family="Times,serif" font-size="14.00">ReportsController</text>
<polyline fill="none" stroke="black" points="0,-935.5 116,-935.5 "/>
<text text-anchor="start" x="8" y="-920.3" font-family="Times,serif" font-size="14.00">apipie_validations</text>
<text text-anchor="start" x="8" y="-905.3" font-family="Times,serif" font-size="14.00">create</text>
<polyline fill="none" stroke="black" points="0,-897.5 116,-897.5 "/>
<polyline fill="none" stroke="black" points="0,-873.5 116,-873.5 "/>
<text text-anchor="start" x="8" y="-858.3" font-family="Times,serif" font-size="14.00">report_params</text>
</g>
<!-- Users::PostsController -->
<g id="node23" class="node">
<title>Users::PostsController</title>
<path fill="none" stroke="black" d="M97,-425.5C97,-425.5 270,-425.5 270,-425.5 276,-425.5 282,-431.5 282,-437.5 282,-437.5 282,-521.5 282,-521.5 282,-527.5 276,-533.5 270,-533.5 270,-533.5 97,-533.5 97,-533.5 91,-533.5 85,-527.5 85,-521.5 85,-521.5 85,-437.5 85,-437.5 85,-431.5 91,-425.5 97,-425.5"/>
<text text-anchor="middle" x="183.5" y="-518.3" font-family="Times,serif" font-size="14.00">Users::PostsController</text>
<polyline fill="none" stroke="black" points="85,-510.5 282,-510.5 "/>
<text text-anchor="start" x="93" y="-495.3" font-family="Times,serif" font-size="14.00">index</text>
<polyline fill="none" stroke="black" points="85,-487.5 282,-487.5 "/>
<polyline fill="none" stroke="black" points="85,-463.5 282,-463.5 "/>
<text text-anchor="start" x="93" y="-448.3" font-family="Times,serif" font-size="14.00">check_permission_for_read_post</text>
<text text-anchor="start" x="93" y="-433.3" font-family="Times,serif" font-size="14.00">set_user</text>
</g>
<!-- UsersController -->
<g id="node24" class="node">
<title>UsersController</title>
<path fill="none" stroke="black" d="M12,-289.5C12,-289.5 91,-289.5 91,-289.5 97,-289.5 103,-295.5 103,-301.5 103,-301.5 103,-371.5 103,-371.5 103,-377.5 97,-383.5 91,-383.5 91,-383.5 12,-383.5 12,-383.5 6,-383.5 0,-377.5 0,-371.5 0,-371.5 0,-301.5 0,-301.5 0,-295.5 6,-289.5 12,-289.5"/>
<text text-anchor="middle" x="51.5" y="-368.3" font-family="Times,serif" font-size="14.00">UsersController</text>
<polyline fill="none" stroke="black" points="0,-360.5 103,-360.5 "/>
<text text-anchor="start" x="8" y="-345.3" font-family="Times,serif" font-size="14.00">show</text>
<polyline fill="none" stroke="black" points="0,-337.5 103,-337.5 "/>
<polyline fill="none" stroke="black" points="0,-313.5 103,-313.5 "/>
</g>
</g>
</svg>
