<?xml version="1.0" encoding="UTF-8" standalone="no"?>
<!DOCTYPE svg PUBLIC "-//W3C//DTD SVG 1.1//EN"
 "http://www.w3.org/Graphics/SVG/1.1/DTD/svg11.dtd">
<!-- Generated by graphviz version 5.0.0 (20220707.1540)
 -->
<!-- Title: models_diagram Pages: 1 -->
<svg width="1494pt" height="1288pt"
 viewBox="0.00 0.00 1494.00 1288.00" xmlns="http://www.w3.org/2000/svg" xmlns:xlink="http://www.w3.org/1999/xlink">
<g id="graph0" class="graph" transform="scale(1 1) rotate(0) translate(4 1284)">
<title>models_diagram</title>
<polygon fill="transparent" stroke="transparent" points="-4,4 -4,-1284 1490,-1284 1490,4 -4,4"/>
<!-- _diagram_info -->
<g id="node1" class="node">
<title>_diagram_info</title>
<text text-anchor="start" x="447" y="-1258.6" font-family="Times,serif" font-size="13.00">Models diagram</text>
<text text-anchor="start" x="447" y="-1244.6" font-family="Times,serif" font-size="13.00">Date: Aug 13 2022 &#45; 20:46</text>
<text text-anchor="start" x="447" y="-1230.6" font-family="Times,serif" font-size="13.00">Migration version: 20220813122813</text>
<text text-anchor="start" x="447" y="-1216.6" font-family="Times,serif" font-size="13.00">Generated by RailRoady 1.6.0</text>
<text text-anchor="start" x="447" y="-1202.6" font-family="Times,serif" font-size="13.00">http://railroady.prestonlee.com</text>
</g>
<!-- ApplicationRecord -->
<g id="node2" class="node">
<title>ApplicationRecord</title>
<ellipse fill="none" stroke="black" cx="748" cy="-1234" rx="77.19" ry="18"/>
<text text-anchor="middle" x="748" y="-1230.3" font-family="Times,serif" font-size="14.00">ApplicationRecord</text>
</g>
<!-- Conversation -->
<g id="node3" class="node">
<title>Conversation</title>
<path fill="none" stroke="black" d="M855,-1188.5C855,-1188.5 1091,-1188.5 1091,-1188.5 1097,-1188.5 1103,-1194.5 1103,-1200.5 1103,-1200.5 1103,-1267.5 1103,-1267.5 1103,-1273.5 1097,-1279.5 1091,-1279.5 1091,-1279.5 855,-1279.5 855,-1279.5 849,-1279.5 843,-1273.5 843,-1267.5 843,-1267.5 843,-1200.5 843,-1200.5 843,-1194.5 849,-1188.5 855,-1188.5"/>
<text text-anchor="middle" x="973" y="-1264.3" font-family="Times,serif" font-size="14.00">Conversation</text>
<polyline fill="none" stroke="black" points="843,-1256.5 1103,-1256.5 "/>
<text text-anchor="start" x="851" y="-1241.3" font-family="Times,serif" font-size="14.00">id :bigint</text>
<text text-anchor="start" x="851" y="-1226.3" font-family="Times,serif" font-size="14.00">created_at :timestamp(6) without time zone</text>
<text text-anchor="start" x="851" y="-1211.3" font-family="Times,serif" font-size="14.00">updated_at :timestamp(6) without time zone</text>
<text text-anchor="start" x="851" y="-1196.3" font-family="Times,serif" font-size="14.00">status :character varying</text>
</g>
<!-- Message -->
<g id="node6" class="node">
<title>Message</title>
<path fill="none" stroke="black" d="M631,-954.5C631,-954.5 867,-954.5 867,-954.5 873,-954.5 879,-960.5 879,-966.5 879,-966.5 879,-1138.5 879,-1138.5 879,-1144.5 873,-1150.5 867,-1150.5 867,-1150.5 631,-1150.5 631,-1150.5 625,-1150.5 619,-1144.5 619,-1138.5 619,-1138.5 619,-966.5 619,-966.5 619,-960.5 625,-954.5 631,-954.5"/>
<text text-anchor="middle" x="749" y="-1135.3" font-family="Times,serif" font-size="14.00">Message</text>
<polyline fill="none" stroke="black" points="619,-1127.5 879,-1127.5 "/>
<text text-anchor="start" x="627" y="-1112.3" font-family="Times,serif" font-size="14.00">uuid :character varying</text>
<text text-anchor="start" x="627" y="-1097.3" font-family="Times,serif" font-size="14.00">text :character varying</text>
<text text-anchor="start" x="627" y="-1082.3" font-family="Times,serif" font-size="14.00">sender_id :integer</text>
<text text-anchor="start" x="627" y="-1067.3" font-family="Times,serif" font-size="14.00">recipient_id :integer</text>
<text text-anchor="start" x="627" y="-1052.3" font-family="Times,serif" font-size="14.00">conversation_id :integer</text>
<text text-anchor="start" x="627" y="-1037.3" font-family="Times,serif" font-size="14.00">created_at :timestamp(6) without time zone</text>
<text text-anchor="start" x="627" y="-1022.3" font-family="Times,serif" font-size="14.00">updated_at :timestamp(6) without time zone</text>
<text text-anchor="start" x="627" y="-1007.3" font-family="Times,serif" font-size="14.00">seen_at :timestamp(6) without time zone</text>
<text text-anchor="start" x="627" y="-992.3" font-family="Times,serif" font-size="14.00">status :character varying</text>
<text text-anchor="start" x="627" y="-977.3" font-family="Times,serif" font-size="14.00">is_system_message :boolean</text>
<text text-anchor="start" x="627" y="-962.3" font-family="Times,serif" font-size="14.00">id :bigint</text>
</g>
<!-- Conversation&#45;&gt;Message -->
<g id="edge1" class="edge">
<title>Conversation&#45;&gt;Message</title>
<path fill="none" stroke="#63bbcf" d="M909.36,-1182C899.41,-1174.03 888.82,-1165.55 878.02,-1156.89"/>
<polygon fill="#63bbcf" stroke="#63bbcf" points="909.54,-1182.15 914.53,-1191.91 913.44,-1185.27 917.34,-1188.4 917.34,-1188.4 917.34,-1188.4 913.44,-1185.27 920.16,-1184.89 909.54,-1182.15 909.54,-1182.15"/>
<polygon fill="#63bbcf" stroke="#63bbcf" points="877.93,-1156.82 872.94,-1147.05 874.03,-1153.69 870.13,-1150.56 870.13,-1150.56 870.13,-1150.56 874.03,-1153.69 867.31,-1154.08 877.93,-1156.82 877.93,-1156.82"/>
</g>
<!-- User -->
<g id="node9" class="node">
<title>User</title>
<path fill="none" stroke="black" d="M560.5,-451.5C560.5,-451.5 865.5,-451.5 865.5,-451.5 871.5,-451.5 877.5,-457.5 877.5,-463.5 877.5,-463.5 877.5,-890.5 877.5,-890.5 877.5,-896.5 871.5,-902.5 865.5,-902.5 865.5,-902.5 560.5,-902.5 560.5,-902.5 554.5,-902.5 548.5,-896.5 548.5,-890.5 548.5,-890.5 548.5,-463.5 548.5,-463.5 548.5,-457.5 554.5,-451.5 560.5,-451.5"/>
<text text-anchor="middle" x="713" y="-887.3" font-family="Times,serif" font-size="14.00">User</text>
<polyline fill="none" stroke="black" points="548.5,-879.5 877.5,-879.5 "/>
<text text-anchor="start" x="556.5" y="-864.3" font-family="Times,serif" font-size="14.00">status :character varying</text>
<text text-anchor="start" x="556.5" y="-849.3" font-family="Times,serif" font-size="14.00">first_name :character varying</text>
<text text-anchor="start" x="556.5" y="-834.3" font-family="Times,serif" font-size="14.00">last_name :character varying</text>
<text text-anchor="start" x="556.5" y="-819.3" font-family="Times,serif" font-size="14.00">birthday :date</text>
<text text-anchor="start" x="556.5" y="-804.3" font-family="Times,serif" font-size="14.00">role :integer</text>
<text text-anchor="start" x="556.5" y="-789.3" font-family="Times,serif" font-size="14.00">created_at :timestamp(6) without time zone</text>
<text text-anchor="start" x="556.5" y="-774.3" font-family="Times,serif" font-size="14.00">updated_at :timestamp(6) without time zone</text>
<text text-anchor="start" x="556.5" y="-759.3" font-family="Times,serif" font-size="14.00">email :character varying</text>
<text text-anchor="start" x="556.5" y="-744.3" font-family="Times,serif" font-size="14.00">encrypted_password :character varying</text>
<text text-anchor="start" x="556.5" y="-729.3" font-family="Times,serif" font-size="14.00">reset_password_token :character varying</text>
<text text-anchor="start" x="556.5" y="-714.3" font-family="Times,serif" font-size="14.00">reset_password_sent_at :timestamp(6) without time zone</text>
<text text-anchor="start" x="556.5" y="-699.3" font-family="Times,serif" font-size="14.00">remember_created_at :timestamp(6) without time zone</text>
<text text-anchor="start" x="556.5" y="-684.3" font-family="Times,serif" font-size="14.00">sign_in_count :integer</text>
<text text-anchor="start" x="556.5" y="-669.3" font-family="Times,serif" font-size="14.00">current_sign_in_at :timestamp(6) without time zone</text>
<text text-anchor="start" x="556.5" y="-654.3" font-family="Times,serif" font-size="14.00">last_sign_in_at :timestamp(6) without time zone</text>
<text text-anchor="start" x="556.5" y="-639.3" font-family="Times,serif" font-size="14.00">current_sign_in_ip :character varying</text>
<text text-anchor="start" x="556.5" y="-624.3" font-family="Times,serif" font-size="14.00">last_sign_in_ip :character varying</text>
<text text-anchor="start" x="556.5" y="-609.3" font-family="Times,serif" font-size="14.00">confirmation_token :character varying</text>
<text text-anchor="start" x="556.5" y="-594.3" font-family="Times,serif" font-size="14.00">confirmed_at :timestamp(6) without time zone</text>
<text text-anchor="start" x="556.5" y="-579.3" font-family="Times,serif" font-size="14.00">confirmation_sent_at :timestamp(6) without time zone</text>
<text text-anchor="start" x="556.5" y="-564.3" font-family="Times,serif" font-size="14.00">unconfirmed_email :character varying</text>
<text text-anchor="start" x="556.5" y="-549.3" font-family="Times,serif" font-size="14.00">failed_attempts :integer</text>
<text text-anchor="start" x="556.5" y="-534.3" font-family="Times,serif" font-size="14.00">unlock_token :character varying</text>
<text text-anchor="start" x="556.5" y="-519.3" font-family="Times,serif" font-size="14.00">locked_at :timestamp(6) without time zone</text>
<text text-anchor="start" x="556.5" y="-504.3" font-family="Times,serif" font-size="14.00">gender :integer</text>
<text text-anchor="start" x="556.5" y="-489.3" font-family="Times,serif" font-size="14.00">last_online :timestamp without time zone</text>
<text text-anchor="start" x="556.5" y="-474.3" font-family="Times,serif" font-size="14.00">jwt_token :character varying</text>
<text text-anchor="start" x="556.5" y="-459.3" font-family="Times,serif" font-size="14.00">id :bigint</text>
</g>
<!-- Conversation&#45;&gt;User -->
<g id="edge3" class="edge">
<title>Conversation&#45;&gt;User</title>
<path fill="none" stroke="#b2cd17" d="M975.41,-1178C976.12,-1113.46 970.58,-1004.65 932,-921 919.34,-893.54 902.47,-867 883.7,-842.17"/>
<polygon fill="#b2cd17" stroke="#b2cd17" points="975.41,-1178.35 970.74,-1188.28 975.33,-1183.35 975.24,-1188.35 975.24,-1188.35 975.24,-1188.35 975.33,-1183.35 979.74,-1188.43 975.41,-1178.35 975.41,-1178.35"/>
<polygon fill="#b2cd17" stroke="#b2cd17" points="883.64,-842.09 881.1,-831.43 880.59,-838.13 877.54,-834.17 877.54,-834.17 877.54,-834.17 880.59,-838.13 873.97,-836.92 883.64,-842.09 883.64,-842.09"/>
</g>
<!-- UserConversation -->
<g id="node10" class="node">
<title>UserConversation</title>
<path fill="none" stroke="black" d="M1238,-211C1238,-211 1474,-211 1474,-211 1480,-211 1486,-217 1486,-223 1486,-223 1486,-335 1486,-335 1486,-341 1480,-347 1474,-347 1474,-347 1238,-347 1238,-347 1232,-347 1226,-341 1226,-335 1226,-335 1226,-223 1226,-223 1226,-217 1232,-211 1238,-211"/>
<text text-anchor="middle" x="1356" y="-331.8" font-family="Times,serif" font-size="14.00">UserConversation</text>
<polyline fill="none" stroke="black" points="1226,-324 1486,-324 "/>
<text text-anchor="start" x="1234" y="-308.8" font-family="Times,serif" font-size="14.00">id :bigint</text>
<text text-anchor="start" x="1234" y="-293.8" font-family="Times,serif" font-size="14.00">conversation_id :integer</text>
<text text-anchor="start" x="1234" y="-278.8" font-family="Times,serif" font-size="14.00">user_id :integer</text>
<text text-anchor="start" x="1234" y="-263.8" font-family="Times,serif" font-size="14.00">is_archived :boolean</text>
<text text-anchor="start" x="1234" y="-248.8" font-family="Times,serif" font-size="14.00">created_at :timestamp(6) without time zone</text>
<text text-anchor="start" x="1234" y="-233.8" font-family="Times,serif" font-size="14.00">updated_at :timestamp(6) without time zone</text>
<text text-anchor="start" x="1234" y="-218.8" font-family="Times,serif" font-size="14.00">status :character varying</text>
</g>
<!-- Conversation&#45;&gt;UserConversation -->
<g id="edge2" class="edge">
<title>Conversation&#45;&gt;UserConversation</title>
<path fill="none" stroke="#848968" d="M994.73,-1178.94C1059.31,-1018.24 1250.26,-543.11 1325.26,-356.49"/>
<polygon fill="#848968" stroke="#848968" points="994.69,-1179.03 986.78,-1186.63 992.82,-1183.67 990.96,-1188.31 990.96,-1188.31 990.96,-1188.31 992.82,-1183.67 995.13,-1189.99 994.69,-1179.03 994.69,-1179.03"/>
<polygon fill="#848968" stroke="#848968" points="1325.34,-356.3 1333.24,-348.7 1327.2,-351.66 1329.07,-347.02 1329.07,-347.02 1329.07,-347.02 1327.2,-351.66 1324.89,-345.34 1325.34,-356.3 1325.34,-356.3"/>
</g>
<!-- Helpers::Attachable -->
<g id="node4" class="node">
<title>Helpers::Attachable</title>
<polygon fill="none" stroke="black" stroke-dasharray="1,5" points="1246.5,-1252 1121.5,-1252 1121.5,-1216 1246.5,-1216 1246.5,-1252"/>
<text text-anchor="middle" x="1184" y="-1230.3" font-family="Times,serif" font-size="14.00">Helpers::Attachable</text>
</g>
<!-- Helpers::Reportable -->
<g id="node5" class="node">
<title>Helpers::Reportable</title>
<polygon fill="none" stroke="black" stroke-dasharray="1,5" points="1389.5,-1252 1264.5,-1252 1264.5,-1216 1389.5,-1216 1389.5,-1252"/>
<text text-anchor="middle" x="1327" y="-1230.3" font-family="Times,serif" font-size="14.00">Helpers::Reportable</text>
</g>
<!-- Message&#45;&gt;User -->
<g id="edge6" class="edge">
<title>Message&#45;&gt;User</title>
<path fill="none" stroke="#47629b" d="M624.77,-945.6C623.05,-942.46 621.45,-939.25 620,-936 616.59,-928.36 614.08,-920.55 612.37,-912.63"/>
<polygon fill="#47629b" stroke="#47629b" points="624.84,-945.72 626.08,-956.61 627.4,-950.02 629.95,-954.32 629.95,-954.32 629.95,-954.32 627.4,-950.02 633.82,-952.02 624.84,-945.72 624.84,-945.72"/>
<polygon fill="#47629b" stroke="#47629b" points="612.33,-912.41 615.06,-901.79 611.48,-907.48 610.62,-902.55 610.62,-902.55 610.62,-902.55 611.48,-907.48 606.19,-903.32 612.33,-912.41 612.33,-912.41"/>
<text text-anchor="middle" x="638" y="-924.8" font-family="Times,serif" font-size="14.00">sender</text>
</g>
<!-- Message&#45;&gt;User -->
<g id="edge7" class="edge">
<title>Message&#45;&gt;User</title>
<path fill="none" stroke="#d8854d" d="M681.76,-944.85C680.75,-941.91 679.83,-938.95 679,-936 676.86,-928.35 675.18,-920.54 673.9,-912.61"/>
<polygon fill="#d8854d" stroke="#d8854d" points="681.76,-944.85 681.05,-955.8 683.51,-949.54 685.26,-954.22 685.26,-954.22 685.26,-954.22 683.51,-949.54 689.48,-952.64 681.76,-944.85 681.76,-944.85"/>
<polygon fill="#d8854d" stroke="#d8854d" points="673.87,-912.43 676.94,-901.9 673.18,-907.48 672.49,-902.53 672.49,-902.53 672.49,-902.53 673.18,-907.48 668.03,-903.15 673.87,-912.43 673.87,-912.43"/>
<text text-anchor="middle" x="703" y="-924.8" font-family="Times,serif" font-size="14.00">recipient</text>
</g>
<!-- ActiveStorage::Attachment -->
<g id="node13" class="node">
<title>ActiveStorage::Attachment</title>
<ellipse fill="none" stroke="black" cx="524" cy="-53.5" rx="107.48" ry="18"/>
<text text-anchor="middle" x="524" y="-49.8" font-family="Times,serif" font-size="14.00">ActiveStorage::Attachment</text>
</g>
<!-- Message&#45;&gt;ActiveStorage::Attachment -->
<g id="edge4" class="edge">
<title>Message&#45;&gt;ActiveStorage::Attachment</title>
<path fill="none" stroke="#06add8" d="M610.27,-964.44C451.65,-855.32 201.92,-651.7 109,-400 71.75,-299.1 42.78,-242.76 109,-158 119.65,-144.37 334.62,-95.76 450.87,-70.3"/>
<polygon fill="#06add8" stroke="#06add8" points="610.44,-964.55 616.15,-973.92 614.57,-967.38 618.7,-970.2 618.7,-970.2 618.7,-970.2 614.57,-967.38 621.24,-966.49 610.44,-964.55 610.44,-964.55"/>
<polygon fill="#06add8" stroke="#06add8" points="451,-70.27 461.73,-72.53 455.89,-69.2 460.77,-68.14 460.77,-68.14 460.77,-68.14 455.89,-69.2 459.81,-63.74 451,-70.27 451,-70.27"/>
<text text-anchor="middle" x="183.5" y="-421.8" font-family="Times,serif" font-size="14.00">attachment_attachment</text>
</g>
<!-- ActiveStorage::Blob -->
<g id="node14" class="node">
<title>ActiveStorage::Blob</title>
<ellipse fill="none" stroke="black" cx="1098" cy="-53.5" rx="83.39" ry="18"/>
<text text-anchor="middle" x="1098" y="-49.8" font-family="Times,serif" font-size="14.00">ActiveStorage::Blob</text>
</g>
<!-- Message&#45;&gt;ActiveStorage::Blob -->
<g id="edge5" class="edge">
<title>Message&#45;&gt;ActiveStorage::Blob</title>
<path fill="none" stroke="#8bdbfb" d="M887.82,-976.21C903.87,-964.07 919.08,-950.63 932,-936 1106.29,-738.73 1126.62,-656.91 1184,-400 1207.44,-295.03 1220.54,-259.16 1184,-158 1172.46,-126.05 1146.28,-97 1125.81,-77.86"/>
<polygon fill="#8bdbfb" stroke="#8bdbfb" points="887.42,-976.51 876.7,-978.82 883.39,-979.48 879.37,-982.44 879.37,-982.44 879.37,-982.44 883.39,-979.48 882.04,-986.07 887.42,-976.51 887.42,-976.51"/>
<polygon fill="#8bdbfb" stroke="#8bdbfb" points="1125.7,-77.76 1121.32,-67.7 1121.99,-74.39 1118.29,-71.03 1118.29,-71.03 1118.29,-71.03 1121.99,-74.39 1115.27,-74.36 1125.7,-77.76 1125.7,-77.76"/>
<text text-anchor="middle" x="1223.5" y="-421.8" font-family="Times,serif" font-size="14.00">attachment_blob</text>
</g>
<!-- Post -->
<g id="node7" class="node">
<title>Post</title>
<path fill="none" stroke="black" d="M130,-211C130,-211 366,-211 366,-211 372,-211 378,-217 378,-223 378,-223 378,-335 378,-335 378,-341 372,-347 366,-347 366,-347 130,-347 130,-347 124,-347 118,-341 118,-335 118,-335 118,-223 118,-223 118,-217 124,-211 130,-211"/>
<text text-anchor="middle" x="248" y="-331.8" font-family="Times,serif" font-size="14.00">Post</text>
<polyline fill="none" stroke="black" points="118,-324 378,-324 "/>
<text text-anchor="start" x="126" y="-308.8" font-family="Times,serif" font-size="14.00">id :bigint</text>
<text text-anchor="start" x="126" y="-293.8" font-family="Times,serif" font-size="14.00">caption :character varying</text>
<text text-anchor="start" x="126" y="-278.8" font-family="Times,serif" font-size="14.00">user_id :integer</text>
<text text-anchor="start" x="126" y="-263.8" font-family="Times,serif" font-size="14.00">no_of_reactions :integer</text>
<text text-anchor="start" x="126" y="-248.8" font-family="Times,serif" font-size="14.00">created_at :timestamp(6) without time zone</text>
<text text-anchor="start" x="126" y="-233.8" font-family="Times,serif" font-size="14.00">updated_at :timestamp(6) without time zone</text>
<text text-anchor="start" x="126" y="-218.8" font-family="Times,serif" font-size="14.00">location :character varying</text>
</g>
<!-- Post&#45;&gt;User -->
<g id="edge10" class="edge">
<title>Post&#45;&gt;User</title>
<path fill="none" stroke="#768f83" d="M253.04,-357.06C257.85,-383.17 266.75,-411.21 283,-433 346.61,-518.32 449.61,-578.02 538.85,-616.9"/>
<polygon fill="#768f83" stroke="#768f83" points="253.04,-357.03 255.83,-346.42 252.21,-352.09 251.39,-347.16 251.39,-347.16 251.39,-347.16 252.21,-352.09 246.95,-347.9 253.04,-357.03 253.04,-357.03"/>
<polygon fill="#768f83" stroke="#768f83" points="539.08,-617 546.49,-625.08 543.68,-618.97 548.27,-620.95 548.27,-620.95 548.27,-620.95 543.68,-618.97 550.05,-616.81 539.08,-617 539.08,-617"/>
</g>
<!-- Post&#45;&gt;User -->
<g id="edge12" class="edge">
<title>Post&#45;&gt;User</title>
<path fill="none" stroke="#4bf883" d="M271.57,-356.7C282.21,-382.91 296.8,-411.1 316,-433 376.92,-502.48 462.63,-558.37 538.83,-598.96"/>
<polygon fill="#4bf883" stroke="#4bf883" points="271.47,-356.46 272.01,-345.51 269.65,-351.81 267.82,-347.15 267.82,-347.15 267.82,-347.15 269.65,-351.81 263.63,-348.79 271.47,-356.46 271.47,-356.46"/>
<polygon fill="#4bf883" stroke="#4bf883" points="539.23,-599.16 545.97,-607.81 543.65,-601.5 548.07,-603.83 548.07,-603.83 548.07,-603.83 543.65,-601.5 550.17,-599.85 539.23,-599.16 539.23,-599.16"/>
<text text-anchor="middle" x="363" y="-421.8" font-family="Times,serif" font-size="14.00">reacted_by_users</text>
</g>
<!-- UserReaction -->
<g id="node11" class="node">
<title>UserReaction</title>
<path fill="none" stroke="black" d="M12,-0.5C12,-0.5 248,-0.5 248,-0.5 254,-0.5 260,-6.5 260,-12.5 260,-12.5 260,-94.5 260,-94.5 260,-100.5 254,-106.5 248,-106.5 248,-106.5 12,-106.5 12,-106.5 6,-106.5 0,-100.5 0,-94.5 0,-94.5 0,-12.5 0,-12.5 0,-6.5 6,-0.5 12,-0.5"/>
<text text-anchor="middle" x="130" y="-91.3" font-family="Times,serif" font-size="14.00">UserReaction</text>
<polyline fill="none" stroke="black" points="0,-83.5 260,-83.5 "/>
<text text-anchor="start" x="8" y="-68.3" font-family="Times,serif" font-size="14.00">id :bigint</text>
<text text-anchor="start" x="8" y="-53.3" font-family="Times,serif" font-size="14.00">user_id :integer</text>
<text text-anchor="start" x="8" y="-38.3" font-family="Times,serif" font-size="14.00">post_id :integer</text>
<text text-anchor="start" x="8" y="-23.3" font-family="Times,serif" font-size="14.00">created_at :timestamp(6) without time zone</text>
<text text-anchor="start" x="8" y="-8.3" font-family="Times,serif" font-size="14.00">updated_at :timestamp(6) without time zone</text>
</g>
<!-- Post&#45;&gt;UserReaction -->
<g id="edge11" class="edge">
<title>Post&#45;&gt;UserReaction</title>
<path fill="none" stroke="#a8431b" d="M207.76,-201.79C192.95,-173.73 176.38,-142.35 162.35,-115.78"/>
<polygon fill="#a8431b" stroke="#a8431b" points="207.93,-202.1 208.62,-213.04 210.26,-206.52 212.6,-210.94 212.6,-210.94 212.6,-210.94 210.26,-206.52 216.58,-208.84 207.93,-202.1 207.93,-202.1"/>
<polygon fill="#a8431b" stroke="#a8431b" points="162.17,-115.44 161.48,-104.49 159.84,-111.01 157.5,-106.59 157.5,-106.59 157.5,-106.59 159.84,-111.01 153.52,-108.69 162.17,-115.44 162.17,-115.44"/>
</g>
<!-- Post&#45;&gt;ActiveStorage::Attachment -->
<g id="edge8" class="edge">
<title>Post&#45;&gt;ActiveStorage::Attachment</title>
<path fill="none" stroke="#c7596b" d="M331.74,-204.17C349.78,-188.7 368.88,-172.64 387,-158 422.51,-129.31 464.57,-97.9 492.63,-77.3"/>
<polygon fill="#c7596b" stroke="#c7596b" points="331.66,-204.24 321.14,-207.35 327.87,-207.5 324.08,-210.76 324.08,-210.76 324.08,-210.76 327.87,-207.5 327.01,-214.17 331.66,-204.24 331.66,-204.24"/>
<polygon fill="#c7596b" stroke="#c7596b" points="492.8,-77.18 503.52,-74.9 496.83,-74.22 500.86,-71.27 500.86,-71.27 500.86,-71.27 496.83,-74.22 498.2,-67.64 492.8,-77.18 492.8,-77.18"/>
<text text-anchor="middle" x="478.5" y="-128.8" font-family="Times,serif" font-size="14.00">image_attachment</text>
</g>
<!-- Post&#45;&gt;ActiveStorage::Blob -->
<g id="edge9" class="edge">
<title>Post&#45;&gt;ActiveStorage::Blob</title>
<path fill="none" stroke="#310899" d="M315.49,-203.91C336.47,-185.57 360.98,-168.25 387,-158 435.31,-138.96 802.64,-147.65 854,-140 879.91,-136.14 885.5,-130.99 911,-125 949.44,-115.97 960.82,-120.31 998,-107 1020.69,-98.88 1044.64,-86.46 1063.41,-75.73"/>
<polygon fill="#310899" stroke="#310899" points="315.37,-204.02 304.92,-207.35 311.65,-207.36 307.92,-210.7 307.92,-210.7 307.92,-210.7 311.65,-207.36 310.93,-214.05 315.37,-204.02 315.37,-204.02"/>
<polygon fill="#310899" stroke="#310899" points="1063.54,-75.66 1074.44,-74.52 1067.86,-73.15 1072.18,-70.63 1072.18,-70.63 1072.18,-70.63 1067.86,-73.15 1069.92,-66.74 1063.54,-75.66 1063.54,-75.66"/>
<text text-anchor="middle" x="943.5" y="-128.8" font-family="Times,serif" font-size="14.00">image_blob</text>
</g>
<!-- Report -->
<g id="node8" class="node">
<title>Report</title>
<path fill="none" stroke="black" d="M822,-196C822,-196 1058,-196 1058,-196 1064,-196 1070,-202 1070,-208 1070,-208 1070,-350 1070,-350 1070,-356 1064,-362 1058,-362 1058,-362 822,-362 822,-362 816,-362 810,-356 810,-350 810,-350 810,-208 810,-208 810,-202 816,-196 822,-196"/>
<text text-anchor="middle" x="940" y="-346.8" font-family="Times,serif" font-size="14.00">Report</text>
<polyline fill="none" stroke="black" points="810,-339 1070,-339 "/>
<text text-anchor="start" x="818" y="-323.8" font-family="Times,serif" font-size="14.00">updated_at :timestamp(6) without time zone</text>
<text text-anchor="start" x="818" y="-308.8" font-family="Times,serif" font-size="14.00">problem_type :integer</text>
<text text-anchor="start" x="818" y="-293.8" font-family="Times,serif" font-size="14.00">text :character varying</text>
<text text-anchor="start" x="818" y="-278.8" font-family="Times,serif" font-size="14.00">target_type :character varying</text>
<text text-anchor="start" x="818" y="-263.8" font-family="Times,serif" font-size="14.00">target_id :integer</text>
<text text-anchor="start" x="818" y="-248.8" font-family="Times,serif" font-size="14.00">owner_id :integer</text>
<text text-anchor="start" x="818" y="-233.8" font-family="Times,serif" font-size="14.00">status :character varying</text>
<text text-anchor="start" x="818" y="-218.8" font-family="Times,serif" font-size="14.00">created_at :timestamp(6) without time zone</text>
<text text-anchor="start" x="818" y="-203.8" font-family="Times,serif" font-size="14.00">id :bigint</text>
</g>
<!-- Report&#45;&gt;User -->
<g id="edge13" class="edge">
<title>Report&#45;&gt;User</title>
<path fill="none" stroke="#423bc0" d="M841.66,-368.54C826.88,-379.87 811.41,-390.73 796,-400 777.89,-410.89 765.06,-401.39 752,-418 746.03,-425.6 740.78,-433.72 736.17,-442.23"/>
<polygon fill="#423bc0" stroke="#423bc0" points="841.91,-368.35 852.57,-365.75 845.86,-365.27 849.8,-362.2 849.8,-362.2 849.8,-362.2 845.86,-365.27 847.04,-358.65 841.91,-368.35 841.91,-368.35"/>
<polygon fill="#423bc0" stroke="#423bc0" points="736.13,-442.32 727.59,-449.2 733.87,-446.78 731.61,-451.24 731.61,-451.24 731.61,-451.24 733.87,-446.78 735.62,-453.27 736.13,-442.32 736.13,-442.32"/>
<text text-anchor="middle" x="769" y="-421.8" font-family="Times,serif" font-size="14.00">owner</text>
</g>
<!-- Report&#45;&gt;ActiveStorage::Attachment -->
<g id="edge15" class="edge">
<title>Report&#45;&gt;ActiveStorage::Attachment</title>
<path fill="none" stroke="#9065d8" d="M846.51,-189.63C830.5,-177.67 813.4,-166.58 796,-158 763.31,-141.89 749.57,-154.18 716,-140 704.76,-135.25 703.79,-130.71 693,-125 655.4,-105.11 610.94,-86.76 577.06,-73.76"/>
<polygon fill="#9065d8" stroke="#9065d8" points="846.83,-189.88 852.03,-199.53 850.8,-192.92 854.77,-195.96 854.77,-195.96 854.77,-195.96 850.8,-192.92 857.51,-192.39 846.83,-189.88 846.83,-189.88"/>
<polygon fill="#9065d8" stroke="#9065d8" points="576.71,-73.63 568.95,-65.87 572.03,-71.85 567.36,-70.07 567.36,-70.07 567.36,-70.07 572.03,-71.85 565.76,-74.28 576.71,-73.63 576.71,-73.63"/>
<text text-anchor="middle" x="785" y="-128.8" font-family="Times,serif" font-size="14.00">attachments_attachments</text>
</g>
<!-- Report&#45;&gt;ActiveStorage::Blob -->
<g id="edge16" class="edge">
<title>Report&#45;&gt;ActiveStorage::Blob</title>
<path fill="none" stroke="#12200a" d="M958.84,-186.45C966.16,-164.88 976.22,-142.97 990,-125 1006.51,-103.47 1031.59,-86.52 1053.43,-74.65"/>
<polygon fill="#12200a" stroke="#12200a" points="958.83,-186.47 951.48,-194.61 957.3,-191.23 955.76,-195.99 955.76,-195.99 955.76,-195.99 957.3,-191.23 960.05,-197.37 958.83,-186.47 958.83,-186.47"/>
<polygon fill="#12200a" stroke="#12200a" points="1053.7,-74.51 1064.64,-73.86 1058.13,-72.19 1062.56,-69.87 1062.56,-69.87 1062.56,-69.87 1058.13,-72.19 1060.47,-65.88 1053.7,-74.51 1053.7,-74.51"/>
<text text-anchor="middle" x="1041" y="-128.8" font-family="Times,serif" font-size="14.00">attachments_blobs</text>
</g>
<!-- Target -->
<g id="node15" class="node">
<title>Target</title>
<ellipse fill="none" stroke="black" cx="956" cy="-53.5" rx="33.29" ry="18"/>
<text text-anchor="middle" x="956" y="-49.8" font-family="Times,serif" font-size="14.00">Target</text>
</g>
<!-- Report&#45;&gt;Target -->
<g id="edge14" class="edge">
<title>Report&#45;&gt;Target</title>
<path fill="none" stroke="#6b626d" d="M946.62,-185.54C949.3,-148.15 952.19,-107.79 954.04,-81.89"/>
<polygon fill="#6b626d" stroke="#6b626d" points="946.6,-185.75 941.4,-195.41 946.25,-190.74 945.89,-195.73 945.89,-195.73 945.89,-195.73 946.25,-190.74 950.38,-196.05 946.6,-185.75 946.6,-185.75"/>
<polygon fill="#6b626d" stroke="#6b626d" points="954.05,-81.7 959.26,-72.04 954.41,-76.71 954.77,-71.72 954.77,-71.72 954.77,-71.72 954.41,-76.71 950.28,-71.4 954.05,-81.7 954.05,-81.7"/>
</g>
<!-- User&#45;&gt;Message -->
<g id="edge18" class="edge">
<title>User&#45;&gt;Message</title>
<path fill="none" stroke="#354217" d="M735.61,-912.54C736.65,-923.39 737.68,-934.02 738.66,-944.26"/>
<polygon fill="#354217" stroke="#354217" points="735.6,-912.46 739.12,-902.07 735.12,-907.48 734.64,-902.5 734.64,-902.5 734.64,-902.5 735.12,-907.48 730.16,-902.94 735.6,-912.46 735.6,-912.46"/>
<polygon fill="#354217" stroke="#354217" points="738.68,-944.39 735.16,-954.77 739.16,-949.37 739.64,-954.34 739.64,-954.34 739.64,-954.34 739.16,-949.37 744.11,-953.91 738.68,-944.39 738.68,-944.39"/>
<text text-anchor="middle" x="777.5" y="-924.8" font-family="Times,serif" font-size="14.00">sent_messages</text>
</g>
<!-- User&#45;&gt;Message -->
<g id="edge19" class="edge">
<title>User&#45;&gt;Message</title>
<path fill="none" stroke="#899abc" d="M820.06,-912.4C820.74,-915.27 821.39,-918.14 822,-921 823.66,-928.77 823.88,-936.54 822.99,-944.21"/>
<polygon fill="#899abc" stroke="#899abc" points="820.04,-912.31 821.97,-901.52 818.82,-907.46 817.61,-902.61 817.61,-902.61 817.61,-902.61 818.82,-907.46 813.24,-903.71 820.04,-912.31 820.04,-912.31"/>
<polygon fill="#899abc" stroke="#899abc" points="822.96,-944.38 816.76,-953.42 822.07,-949.3 821.19,-954.22 821.19,-954.22 821.19,-954.22 822.07,-949.3 825.62,-955.02 822.96,-944.38 822.96,-944.38"/>
<text text-anchor="middle" x="875.5" y="-924.8" font-family="Times,serif" font-size="14.00">received_messages</text>
</g>
<!-- User&#45;&gt;Post -->
<g id="edge21" class="edge">
<title>User&#45;&gt;Post</title>
<path fill="none" stroke="#2ca5d0" d="M540.27,-526.79C497.94,-490.83 452.57,-452.76 410,-418 399.95,-409.79 397.03,-408.24 387,-400 369.01,-385.21 349.96,-369.08 331.93,-353.59"/>
<polygon fill="#2ca5d0" stroke="#2ca5d0" points="540.51,-527.01 545.22,-536.91 544.32,-530.24 548.13,-533.48 548.13,-533.48 548.13,-533.48 544.32,-530.24 551.05,-530.06 540.51,-527.01 540.51,-527.01"/>
<polygon fill="#2ca5d0" stroke="#2ca5d0" points="331.85,-353.52 327.21,-343.59 328.06,-350.26 324.27,-347 324.27,-347 324.27,-347 328.06,-350.26 321.34,-350.41 331.85,-353.52 331.85,-353.52"/>
<text text-anchor="middle" x="464" y="-421.8" font-family="Times,serif" font-size="14.00">reacted_posts</text>
</g>
<!-- User&#45;&gt;Report -->
<g id="edge25" class="edge">
<title>User&#45;&gt;Report</title>
<path fill="none" stroke="#1a2ebb" d="M802.86,-442.22C807.42,-433.93 812.14,-425.83 817,-418 827.16,-401.63 839.32,-385.35 851.99,-370.02"/>
<polygon fill="#1a2ebb" stroke="#1a2ebb" points="802.72,-442.48 794,-449.14 800.34,-446.88 797.96,-451.28 797.96,-451.28 797.96,-451.28 800.34,-446.88 801.92,-453.42 802.72,-442.48 802.72,-442.48"/>
<polygon fill="#1a2ebb" stroke="#1a2ebb" points="852.21,-369.74 862.09,-364.98 855.43,-365.92 858.65,-362.09 858.65,-362.09 858.65,-362.09 855.43,-365.92 855.2,-359.19 852.21,-369.74 852.21,-369.74"/>
<text text-anchor="middle" x="850.5" y="-421.8" font-family="Times,serif" font-size="14.00">sent_reports</text>
</g>
<!-- User&#45;&gt;Report -->
<g id="edge26" class="edge">
<title>User&#45;&gt;Report</title>
<path fill="none" stroke="#75ad97" d="M879,-442.38C880.7,-439.25 882.37,-436.12 884,-433 894.06,-413.77 903.13,-392.31 910.88,-371.7"/>
<polygon fill="#75ad97" stroke="#75ad97" points="878.95,-442.46 870.18,-449.05 876.54,-446.84 874.13,-451.22 874.13,-451.22 874.13,-451.22 876.54,-446.84 878.07,-453.39 878.95,-442.46 878.95,-442.46"/>
<polygon fill="#75ad97" stroke="#75ad97" points="910.89,-371.68 918.58,-363.86 912.62,-366.99 914.35,-362.3 914.35,-362.3 914.35,-362.3 912.62,-366.99 910.13,-360.74 910.89,-371.68 910.89,-371.68"/>
<text text-anchor="middle" x="934.5" y="-421.8" font-family="Times,serif" font-size="14.00">received_reports</text>
</g>
<!-- User&#45;&gt;UserConversation -->
<g id="edge17" class="edge">
<title>User&#45;&gt;UserConversation</title>
<path fill="none" stroke="#5e1183" d="M886.38,-575.11C973.38,-523.75 1079.98,-459.7 1174,-400 1197.72,-384.94 1222.99,-368.52 1246.92,-352.8"/>
<polygon fill="#5e1183" stroke="#5e1183" points="886.37,-575.11 875.47,-576.32 882.07,-577.66 877.76,-580.2 877.76,-580.2 877.76,-580.2 882.07,-577.66 880.05,-584.07 886.37,-575.11 886.37,-575.11"/>
<polygon fill="#5e1183" stroke="#5e1183" points="1246.97,-352.76 1257.79,-351.03 1251.14,-350.02 1255.32,-347.27 1255.32,-347.27 1255.32,-347.27 1251.14,-350.02 1252.85,-343.51 1246.97,-352.76 1246.97,-352.76"/>
</g>
<!-- User&#45;&gt;UserReaction -->
<g id="edge20" class="edge">
<title>User&#45;&gt;UserReaction</title>
<path fill="none" stroke="#a301d6" d="M539.56,-580.97C437.18,-527.71 303.77,-463.12 180,-418 149.41,-406.85 128.99,-425.69 109,-400 45.87,-318.87 76.49,-191.89 103.75,-116.56"/>
<polygon fill="#a301d6" stroke="#a301d6" points="539.57,-580.98 546.35,-589.59 544,-583.29 548.43,-585.6 548.43,-585.6 548.43,-585.6 544,-583.29 550.51,-581.61 539.57,-580.98 539.57,-580.98"/>
<polygon fill="#a301d6" stroke="#a301d6" points="103.92,-116.11 111.62,-108.3 105.66,-111.42 107.4,-106.74 107.4,-106.74 107.4,-106.74 105.66,-111.42 103.18,-105.17 103.92,-116.11 103.92,-116.11"/>
</g>
<!-- UserSetting -->
<g id="node12" class="node">
<title>UserSetting</title>
<path fill="none" stroke="black" d="M408,-158.5C408,-158.5 644,-158.5 644,-158.5 650,-158.5 656,-164.5 656,-170.5 656,-170.5 656,-387.5 656,-387.5 656,-393.5 650,-399.5 644,-399.5 644,-399.5 408,-399.5 408,-399.5 402,-399.5 396,-393.5 396,-387.5 396,-387.5 396,-170.5 396,-170.5 396,-164.5 402,-158.5 408,-158.5"/>
<text text-anchor="middle" x="526" y="-384.3" font-family="Times,serif" font-size="14.00">UserSetting</text>
<polyline fill="none" stroke="black" points="396,-376.5 656,-376.5 "/>
<text text-anchor="start" x="404" y="-361.3" font-family="Times,serif" font-size="14.00">updated_at :timestamp(6) without time zone</text>
<text text-anchor="start" x="404" y="-346.3" font-family="Times,serif" font-size="14.00">from_age :integer</text>
<text text-anchor="start" x="404" y="-331.3" font-family="Times,serif" font-size="14.00">to_age :integer</text>
<text text-anchor="start" x="404" y="-316.3" font-family="Times,serif" font-size="14.00">lat :double precision</text>
<text text-anchor="start" x="404" y="-301.3" font-family="Times,serif" font-size="14.00">long :double precision</text>
<text text-anchor="start" x="404" y="-286.3" font-family="Times,serif" font-size="14.00">address :character varying</text>
<text text-anchor="start" x="404" y="-271.3" font-family="Times,serif" font-size="14.00">radius :integer</text>
<text text-anchor="start" x="404" y="-256.3" font-family="Times,serif" font-size="14.00">gender :integer</text>
<text text-anchor="start" x="404" y="-241.3" font-family="Times,serif" font-size="14.00">user_id :integer</text>
<text text-anchor="start" x="404" y="-226.3" font-family="Times,serif" font-size="14.00">enable_age_filter :boolean</text>
<text text-anchor="start" x="404" y="-211.3" font-family="Times,serif" font-size="14.00">enable_location_filter :boolean</text>
<text text-anchor="start" x="404" y="-196.3" font-family="Times,serif" font-size="14.00">enable_gender_filter :boolean</text>
<text text-anchor="start" x="404" y="-181.3" font-family="Times,serif" font-size="14.00">created_at :timestamp(6) without time zone</text>
<text text-anchor="start" x="404" y="-166.3" font-family="Times,serif" font-size="14.00">id :bigint</text>
</g>
<!-- User&#45;&gt;UserSetting -->
<g id="edge22" class="edge">
<title>User&#45;&gt;UserSetting</title>
<path fill="none" stroke="#fa5738" d="M602.65,-442.33C597.36,-431.11 592.13,-420.05 587.06,-409.29"/>
<polygon fill="#fa5738" stroke="#fa5738" points="602.66,-442.35 602.86,-453.31 604.8,-446.87 606.93,-451.39 606.93,-451.39 606.93,-451.39 604.8,-446.87 611,-449.47 602.66,-442.35 602.66,-442.35"/>
<polygon fill="#fa5738" stroke="#fa5738" points="586.9,-408.97 586.7,-398.01 584.77,-404.45 582.63,-399.93 582.63,-399.93 582.63,-399.93 584.77,-404.45 578.56,-401.85 586.9,-408.97 586.9,-408.97"/>
</g>
<!-- User&#45;&gt;ActiveStorage::Attachment -->
<g id="edge23" class="edge">
<title>User&#45;&gt;ActiveStorage::Attachment</title>
<path fill="none" stroke="#da67a4" d="M700.04,-441.23C691.58,-316.43 679.44,-183.52 665,-158 643.6,-120.2 602.09,-92.32 569.63,-75.09"/>
<polygon fill="#da67a4" stroke="#da67a4" points="700.05,-441.37 696.23,-451.65 700.39,-446.36 700.72,-451.34 700.72,-451.34 700.72,-451.34 700.39,-446.36 705.21,-451.04 700.05,-441.37 700.05,-441.37"/>
<polygon fill="#da67a4" stroke="#da67a4" points="569.63,-75.09 562.8,-66.51 565.18,-72.8 560.74,-70.51 560.74,-70.51 560.74,-70.51 565.18,-72.8 558.68,-74.51 569.63,-75.09 569.63,-75.09"/>
<text text-anchor="middle" x="746" y="-275.3" font-family="Times,serif" font-size="14.00">avatar_attachment</text>
</g>
<!-- User&#45;&gt;ActiveStorage::Blob -->
<g id="edge24" class="edge">
<title>User&#45;&gt;ActiveStorage::Blob</title>
<path fill="none" stroke="#ddc968" d="M886.75,-589.19C959.25,-543.4 1036.37,-479.97 1079,-400 1135.52,-293.98 1115.33,-142.75 1103.79,-81.65"/>
<polygon fill="#ddc968" stroke="#ddc968" points="886.42,-589.4 875.56,-590.87 882.18,-592.04 877.94,-594.69 877.94,-594.69 877.94,-594.69 882.18,-592.04 880.32,-598.51 886.42,-589.4 886.42,-589.4"/>
<polygon fill="#ddc968" stroke="#ddc968" points="1103.75,-81.46 1106.23,-70.78 1102.78,-76.56 1101.82,-71.65 1101.82,-71.65 1101.82,-71.65 1102.78,-76.56 1097.4,-72.52 1103.75,-81.46 1103.75,-81.46"/>
<text text-anchor="middle" x="1148" y="-275.3" font-family="Times,serif" font-size="14.00">avatar_blob</text>
</g>
</g>
</svg>
