<?xml version="1.0" encoding="UTF-8" standalone="no"?>
<!DOCTYPE svg PUBLIC "-//W3C//DTD SVG 1.1//EN"
 "http://www.w3.org/Graphics/SVG/1.1/DTD/svg11.dtd">
<!-- Generated by graphviz version 5.0.0 (20220707.1540)
 -->
<!-- Title: models_diagram Pages: 1 -->
<svg width="1026pt" height="420pt"
 viewBox="0.00 0.00 1025.55 420.00" xmlns="http://www.w3.org/2000/svg" xmlns:xlink="http://www.w3.org/1999/xlink">
<g id="graph0" class="graph" transform="scale(1 1) rotate(0) translate(4 416)">
<title>models_diagram</title>
<polygon fill="transparent" stroke="transparent" points="-4,4 -4,-416 1021.55,-416 1021.55,4 -4,4"/>
<!-- _diagram_info -->
<g id="node1" class="node">
<title>_diagram_info</title>
<text text-anchor="start" x="220.05" y="-397.6" font-family="Times,serif" font-size="13.00">Models diagram</text>
<text text-anchor="start" x="220.05" y="-383.6" font-family="Times,serif" font-size="13.00">Date: Aug 13 2022 &#45; 20:46</text>
<text text-anchor="start" x="220.05" y="-369.6" font-family="Times,serif" font-size="13.00">Migration version: 20220813122813</text>
<text text-anchor="start" x="220.05" y="-355.6" font-family="Times,serif" font-size="13.00">Generated by RailRoady 1.6.0</text>
<text text-anchor="start" x="220.05" y="-341.6" font-family="Times,serif" font-size="13.00">http://railroady.prestonlee.com</text>
</g>
<!-- ApplicationRecord -->
<g id="node2" class="node">
<title>ApplicationRecord</title>
<ellipse fill="none" stroke="black" cx="521.05" cy="-373" rx="77.19" ry="18"/>
<text text-anchor="middle" x="521.05" y="-369.3" font-family="Times,serif" font-size="14.00">ApplicationRecord</text>
</g>
<!-- Conversation -->
<g id="node3" class="node">
<title>Conversation</title>
<ellipse fill="none" stroke="black" cx="674.05" cy="-373" rx="57.69" ry="18"/>
<text text-anchor="middle" x="674.05" y="-369.3" font-family="Times,serif" font-size="14.00">Conversation</text>
</g>
<!-- Message -->
<g id="node6" class="node">
<title>Message</title>
<ellipse fill="none" stroke="black" cx="450.05" cy="-279" rx="42.49" ry="18"/>
<text text-anchor="middle" x="450.05" y="-275.3" font-family="Times,serif" font-size="14.00">Message</text>
</g>
<!-- Conversation&#45;&gt;Message -->
<g id="edge1" class="edge">
<title>Conversation&#45;&gt;Message</title>
<path fill="none" stroke="#25dada" d="M640.61,-351.43C630.08,-345.39 618.27,-339.06 607.05,-334 569.94,-317.27 526,-302.56 494.05,-292.74"/>
<polygon fill="#25dada" stroke="#25dada" points="640.85,-351.57 647.21,-360.5 645.17,-354.1 649.49,-356.62 649.49,-356.62 649.49,-356.62 645.17,-354.1 651.76,-352.73 640.85,-351.57 640.85,-351.57"/>
<polygon fill="#25dada" stroke="#25dada" points="493.7,-292.63 485.43,-285.42 488.91,-291.18 484.13,-289.73 484.13,-289.73 484.13,-289.73 488.91,-291.18 482.82,-294.03 493.7,-292.63 493.7,-292.63"/>
</g>
<!-- User -->
<g id="node9" class="node">
<title>User</title>
<ellipse fill="none" stroke="black" cx="414.05" cy="-192" rx="27.1" ry="18"/>
<text text-anchor="middle" x="414.05" y="-188.3" font-family="Times,serif" font-size="14.00">User</text>
</g>
<!-- Conversation&#45;&gt;User -->
<g id="edge3" class="edge">
<title>Conversation&#45;&gt;User</title>
<path fill="none" stroke="#8067dd" d="M674.06,-344.48C672.48,-311.6 664.52,-257.38 631.05,-228 604.98,-205.12 506.51,-197.09 451.61,-194.35"/>
<polygon fill="#8067dd" stroke="#8067dd" points="674.07,-344.75 669.88,-354.88 674.22,-349.74 674.38,-354.74 674.38,-354.74 674.38,-354.74 674.22,-349.74 678.88,-354.6 674.07,-344.75 674.07,-344.75"/>
<polygon fill="#8067dd" stroke="#8067dd" points="451.56,-194.35 441.78,-189.39 446.57,-194.12 441.57,-193.89 441.57,-193.89 441.57,-193.89 446.57,-194.12 441.37,-198.38 451.56,-194.35 451.56,-194.35"/>
</g>
<!-- UserConversation -->
<g id="node10" class="node">
<title>UserConversation</title>
<ellipse fill="none" stroke="black" cx="879.05" cy="-105" rx="74.19" ry="18"/>
<text text-anchor="middle" x="879.05" y="-101.3" font-family="Times,serif" font-size="14.00">UserConversation</text>
</g>
<!-- Conversation&#45;&gt;UserConversation -->
<g id="edge2" class="edge">
<title>Conversation&#45;&gt;UserConversation</title>
<path fill="none" stroke="#a001c8" d="M701.63,-349.33C743.91,-313.03 824.31,-237.61 867.05,-156 870.69,-149.04 873.25,-140.96 875.04,-133.35"/>
<polygon fill="#a001c8" stroke="#a001c8" points="701.57,-349.38 691.04,-352.42 697.76,-352.61 693.95,-355.85 693.95,-355.85 693.95,-355.85 697.76,-352.61 696.87,-359.28 701.57,-349.38 701.57,-349.38"/>
<polygon fill="#a001c8" stroke="#a001c8" points="875.06,-133.21 881.44,-124.29 876.04,-128.31 877.02,-123.41 877.02,-123.41 877.02,-123.41 876.04,-128.31 872.61,-122.53 875.06,-133.21 875.06,-133.21"/>
</g>
<!-- Helpers::Attachable -->
<g id="node4" class="node">
<title>Helpers::Attachable</title>
<polygon fill="none" stroke="black" stroke-dasharray="1,5" points="874.55,-391 749.55,-391 749.55,-355 874.55,-355 874.55,-391"/>
<text text-anchor="middle" x="812.05" y="-369.3" font-family="Times,serif" font-size="14.00">Helpers::Attachable</text>
</g>
<!-- Helpers::Reportable -->
<g id="node5" class="node">
<title>Helpers::Reportable</title>
<polygon fill="none" stroke="black" stroke-dasharray="1,5" points="1017.55,-391 892.55,-391 892.55,-355 1017.55,-355 1017.55,-391"/>
<text text-anchor="middle" x="955.05" y="-369.3" font-family="Times,serif" font-size="14.00">Helpers::Reportable</text>
</g>
<!-- Message&#45;&gt;User -->
<g id="edge6" class="edge">
<title>Message&#45;&gt;User</title>
<path fill="none" stroke="#85f98c" d="M400.27,-270.83C368.26,-265.08 330.88,-255.85 321.05,-243 303.13,-219.58 344.45,-205.85 377.64,-198.88"/>
<polygon fill="#85f98c" stroke="#85f98c" points="400.57,-270.88 409.67,-277.01 405.5,-271.73 410.43,-272.57 410.43,-272.57 410.43,-272.57 405.5,-271.73 411.19,-268.14 400.57,-270.88 400.57,-270.88"/>
<polygon fill="#85f98c" stroke="#85f98c" points="377.79,-198.85 388.47,-201.35 382.69,-197.89 387.6,-196.93 387.6,-196.93 387.6,-196.93 382.69,-197.89 386.74,-192.51 377.79,-198.85 377.79,-198.85"/>
<text text-anchor="middle" x="339.05" y="-231.8" font-family="Times,serif" font-size="14.00">sender</text>
</g>
<!-- Message&#45;&gt;User -->
<g id="edge7" class="edge">
<title>Message&#45;&gt;User</title>
<path fill="none" stroke="#dd779c" d="M405.36,-264.74C395.35,-259.59 385.96,-252.56 380.05,-243 373.84,-232.95 379.65,-222.08 388.12,-213.05"/>
<polygon fill="#dd779c" stroke="#dd779c" points="405.54,-264.82 412.79,-273.05 410.09,-266.88 414.65,-268.95 414.65,-268.95 414.65,-268.95 410.09,-266.88 416.51,-264.85 405.54,-264.82 405.54,-264.82"/>
<polygon fill="#dd779c" stroke="#dd779c" points="388.38,-212.81 398.74,-209.23 392.02,-209.38 395.66,-205.95 395.66,-205.95 395.66,-205.95 392.02,-209.38 392.57,-202.68 388.38,-212.81 388.38,-212.81"/>
<text text-anchor="middle" x="404.05" y="-231.8" font-family="Times,serif" font-size="14.00">recipient</text>
</g>
<!-- ActiveStorage::Attachment -->
<g id="node13" class="node">
<title>ActiveStorage::Attachment</title>
<ellipse fill="none" stroke="black" cx="275.05" cy="-18" rx="107.48" ry="18"/>
<text text-anchor="middle" x="275.05" y="-14.3" font-family="Times,serif" font-size="14.00">ActiveStorage::Attachment</text>
</g>
<!-- Message&#45;&gt;ActiveStorage::Attachment -->
<g id="edge4" class="edge">
<title>Message&#45;&gt;ActiveStorage::Attachment</title>
<path fill="none" stroke="#59f9ba" d="M399.88,-271.65C295.13,-257.25 58.99,-218.43 12.05,-156 -40.02,-86.75 90.03,-49.34 185.26,-31.84"/>
<polygon fill="#59f9ba" stroke="#59f9ba" points="399.98,-271.66 409.29,-277.47 404.94,-272.34 409.89,-273.01 409.89,-273.01 409.89,-273.01 404.94,-272.34 410.5,-268.55 399.98,-271.66 399.98,-271.66"/>
<polygon fill="#59f9ba" stroke="#59f9ba" points="185.38,-31.82 196.02,-34.48 190.3,-30.93 195.23,-30.05 195.23,-30.05 195.23,-30.05 190.3,-30.93 194.43,-25.62 185.38,-31.82 185.38,-31.82"/>
<text text-anchor="middle" x="75.55" y="-144.8" font-family="Times,serif" font-size="14.00">attachment_attachment</text>
</g>
<!-- ActiveStorage::Blob -->
<g id="node14" class="node">
<title>ActiveStorage::Blob</title>
<ellipse fill="none" stroke="black" cx="698.05" cy="-18" rx="83.39" ry="18"/>
<text text-anchor="middle" x="698.05" y="-14.3" font-family="Times,serif" font-size="14.00">ActiveStorage::Blob</text>
</g>
<!-- Message&#45;&gt;ActiveStorage::Blob -->
<g id="edge5" class="edge">
<title>Message&#45;&gt;ActiveStorage::Blob</title>
<path fill="none" stroke="#c420bb" d="M502.28,-275.55C539.83,-272.01 590.75,-263.48 631.05,-243 700.86,-207.53 728.78,-194.79 760.05,-123 766.44,-108.33 765.83,-101.92 760.05,-87 753.36,-69.73 740.01,-54.15 727.41,-42.28"/>
<polygon fill="#c420bb" stroke="#c420bb" points="502.02,-275.57 491.67,-271.94 497.04,-276 492.06,-276.42 492.06,-276.42 492.06,-276.42 497.04,-276 492.44,-280.9 502.02,-275.57 502.02,-275.57"/>
<polygon fill="#c420bb" stroke="#c420bb" points="727.17,-42.07 722.73,-32.04 723.45,-38.73 719.72,-35.39 719.72,-35.39 719.72,-35.39 723.45,-38.73 716.72,-38.74 727.17,-42.07 727.17,-42.07"/>
<text text-anchor="middle" x="796.55" y="-144.8" font-family="Times,serif" font-size="14.00">attachment_blob</text>
</g>
<!-- Post -->
<g id="node7" class="node">
<title>Post</title>
<ellipse fill="none" stroke="black" cx="166.05" cy="-105" rx="27" ry="18"/>
<text text-anchor="middle" x="166.05" y="-101.3" font-family="Times,serif" font-size="14.00">Post</text>
</g>
<!-- Post&#45;&gt;User -->
<g id="edge10" class="edge">
<title>Post&#45;&gt;User</title>
<path fill="none" stroke="#b08fb8" d="M147.5,-129.63C142.72,-138.66 140.53,-148.57 147.05,-156 176.46,-189.52 310.34,-192.52 376.63,-191.87"/>
<polygon fill="#b08fb8" stroke="#b08fb8" points="147.6,-129.48 156.74,-123.42 150.26,-125.25 152.93,-121.02 152.93,-121.02 152.93,-121.02 150.26,-125.25 149.12,-118.62 147.6,-129.48 147.6,-129.48"/>
<polygon fill="#b08fb8" stroke="#b08fb8" points="376.66,-191.87 386.72,-196.24 381.66,-191.8 386.66,-191.74 386.66,-191.74 386.66,-191.74 381.66,-191.8 386.6,-187.24 376.66,-191.87 376.66,-191.87"/>
</g>
<!-- Post&#45;&gt;User -->
<g id="edge12" class="edge">
<title>Post&#45;&gt;User</title>
<path fill="none" stroke="#e05b1e" d="M160.25,-132.97C160.01,-141.24 161.54,-149.79 167.05,-156 194,-186.41 314.14,-191.05 376.39,-191.35"/>
<polygon fill="#e05b1e" stroke="#e05b1e" points="160.27,-132.78 165.81,-123.31 160.81,-127.8 161.34,-122.83 161.34,-122.83 161.34,-122.83 160.81,-127.8 156.87,-122.35 160.27,-132.78 160.27,-132.78"/>
<polygon fill="#e05b1e" stroke="#e05b1e" points="376.58,-191.35 386.57,-195.87 381.58,-191.36 386.58,-191.37 386.58,-191.37 386.58,-191.37 381.58,-191.36 386.58,-186.87 376.58,-191.35 376.58,-191.35"/>
<text text-anchor="middle" x="214.05" y="-144.8" font-family="Times,serif" font-size="14.00">reacted_by_users</text>
</g>
<!-- UserReaction -->
<g id="node11" class="node">
<title>UserReaction</title>
<ellipse fill="none" stroke="black" cx="87.05" cy="-18" rx="58.49" ry="18"/>
<text text-anchor="middle" x="87.05" y="-14.3" font-family="Times,serif" font-size="14.00">UserReaction</text>
</g>
<!-- Post&#45;&gt;UserReaction -->
<g id="edge11" class="edge">
<title>Post&#45;&gt;UserReaction</title>
<path fill="none" stroke="#4ecfd7" d="M145.29,-81.66C134.3,-69.84 120.79,-55.31 109.55,-43.21"/>
<polygon fill="#4ecfd7" stroke="#4ecfd7" points="145.48,-81.87 148.99,-92.26 148.88,-85.53 152.29,-89.19 152.29,-89.19 152.29,-89.19 148.88,-85.53 155.58,-86.13 145.48,-81.87 145.48,-81.87"/>
<polygon fill="#4ecfd7" stroke="#4ecfd7" points="109.35,-43 105.84,-32.61 105.95,-39.34 102.54,-35.67 102.54,-35.67 102.54,-35.67 105.95,-39.34 99.25,-38.74 109.35,-43 109.35,-43"/>
</g>
<!-- Post&#45;&gt;ActiveStorage::Attachment -->
<g id="edge8" class="edge">
<title>Post&#45;&gt;ActiveStorage::Attachment</title>
<path fill="none" stroke="#d9060b" d="M160.89,-76.93C160.78,-68.89 162.23,-60.49 167.05,-54 172.94,-46.07 180.65,-39.91 189.26,-35.12"/>
<polygon fill="#d9060b" stroke="#d9060b" points="160.91,-77.16 157.31,-87.51 161.35,-82.14 161.79,-87.12 161.79,-87.12 161.79,-87.12 161.35,-82.14 166.27,-86.73 160.91,-77.16 160.91,-77.16"/>
<polygon fill="#d9060b" stroke="#d9060b" points="189.53,-34.99 200.49,-34.65 194.02,-32.8 198.52,-30.61 198.52,-30.61 198.52,-30.61 194.02,-32.8 196.54,-26.56 189.53,-34.99 189.53,-34.99"/>
<text text-anchor="middle" x="217.55" y="-57.8" font-family="Times,serif" font-size="14.00">image_attachment</text>
</g>
<!-- Post&#45;&gt;ActiveStorage::Blob -->
<g id="edge9" class="edge">
<title>Post&#45;&gt;ActiveStorage::Blob</title>
<path fill="none" stroke="#388c19" d="M201.07,-95.8C215.55,-92.65 232.54,-89.28 248.05,-87 338.98,-73.65 363.7,-85.81 454.05,-69 477.7,-64.6 482.63,-59.5 506.05,-54 528.36,-48.76 580.7,-39.29 625.1,-31.52"/>
<polygon fill="#388c19" stroke="#388c19" points="200.8,-95.86 190.06,-93.63 195.92,-96.94 191.03,-98.03 191.03,-98.03 191.03,-98.03 195.92,-96.94 192.01,-102.42 200.8,-95.86 200.8,-95.86"/>
<polygon fill="#388c19" stroke="#388c19" points="625.18,-31.5 635.8,-34.22 630.1,-30.64 635.03,-29.78 635.03,-29.78 635.03,-29.78 630.1,-30.64 634.25,-25.35 625.18,-31.5 625.18,-31.5"/>
<text text-anchor="middle" x="538.55" y="-57.8" font-family="Times,serif" font-size="14.00">image_blob</text>
</g>
<!-- Report -->
<g id="node8" class="node">
<title>Report</title>
<ellipse fill="none" stroke="black" cx="553.05" cy="-105" rx="34.39" ry="18"/>
<text text-anchor="middle" x="553.05" y="-101.3" font-family="Times,serif" font-size="14.00">Report</text>
</g>
<!-- Report&#45;&gt;User -->
<g id="edge13" class="edge">
<title>Report&#45;&gt;User</title>
<path fill="none" stroke="#46b7ba" d="M515.21,-118.68C510.46,-120.18 505.65,-121.66 501.05,-123 470.21,-132 454.61,-119.17 431.05,-141 424.55,-147.03 420.53,-155.63 418.05,-164.01"/>
<polygon fill="#46b7ba" stroke="#46b7ba" points="515.29,-118.66 526.19,-119.88 520.05,-117.13 524.81,-115.6 524.81,-115.6 524.81,-115.6 520.05,-117.13 523.44,-111.31 515.29,-118.66 515.29,-118.66"/>
<polygon fill="#46b7ba" stroke="#46b7ba" points="418.01,-164.19 411.34,-172.9 416.87,-169.06 415.72,-173.93 415.72,-173.93 415.72,-173.93 416.87,-169.06 420.1,-174.96 418.01,-164.19 418.01,-164.19"/>
<text text-anchor="middle" x="448.05" y="-144.8" font-family="Times,serif" font-size="14.00">owner</text>
</g>
<!-- Report&#45;&gt;ActiveStorage::Attachment -->
<g id="edge15" class="edge">
<title>Report&#45;&gt;ActiveStorage::Attachment</title>
<path fill="none" stroke="#d7efb6" d="M515.89,-90.77C510.95,-89.33 505.91,-88.02 501.05,-87 460.62,-78.53 352.48,-88.46 316.05,-69 305.69,-63.47 296.96,-54.11 290.24,-44.98"/>
<polygon fill="#d7efb6" stroke="#d7efb6" points="516.28,-90.89 524.49,-98.16 521.05,-92.37 525.83,-93.86 525.83,-93.86 525.83,-93.86 521.05,-92.37 527.16,-89.56 516.28,-90.89 516.28,-90.89"/>
<polygon fill="#d7efb6" stroke="#d7efb6" points="290.05,-44.7 288.17,-33.9 287.25,-40.56 284.44,-36.42 284.44,-36.42 284.44,-36.42 287.25,-40.56 280.72,-38.95 290.05,-44.7 290.05,-44.7"/>
<text text-anchor="middle" x="385.05" y="-57.8" font-family="Times,serif" font-size="14.00">attachments_attachments</text>
</g>
<!-- Report&#45;&gt;ActiveStorage::Blob -->
<g id="edge16" class="edge">
<title>Report&#45;&gt;ActiveStorage::Blob</title>
<path fill="none" stroke="#00c9ad" d="M567.14,-78.86C573.19,-69.95 580.98,-60.53 590.05,-54 601.88,-45.49 615.88,-38.98 629.82,-34.02"/>
<polygon fill="#00c9ad" stroke="#00c9ad" points="567.03,-79.03 557.87,-85.06 564.35,-83.25 561.67,-87.47 561.67,-87.47 561.67,-87.47 564.35,-83.25 565.47,-89.88 567.03,-79.03 567.03,-79.03"/>
<polygon fill="#00c9ad" stroke="#00c9ad" points="629.94,-33.98 640.85,-35.09 634.69,-32.4 639.43,-30.82 639.43,-30.82 639.43,-30.82 634.69,-32.4 638.01,-26.55 629.94,-33.98 629.94,-33.98"/>
<text text-anchor="middle" x="641.05" y="-57.8" font-family="Times,serif" font-size="14.00">attachments_blobs</text>
</g>
<!-- Target -->
<g id="node15" class="node">
<title>Target</title>
<ellipse fill="none" stroke="black" cx="556.05" cy="-18" rx="33.29" ry="18"/>
<text text-anchor="middle" x="556.05" y="-14.3" font-family="Times,serif" font-size="14.00">Target</text>
</g>
<!-- Report&#45;&gt;Target -->
<g id="edge14" class="edge">
<title>Report&#45;&gt;Target</title>
<path fill="none" stroke="#e9a222" d="M554.01,-76.73C554.35,-67.06 554.74,-56.17 555.08,-46.48"/>
<polygon fill="#e9a222" stroke="#e9a222" points="554.01,-76.81 549.16,-86.64 553.83,-81.8 553.66,-86.8 553.66,-86.8 553.66,-86.8 553.83,-81.8 558.15,-86.96 554.01,-76.81 554.01,-76.81"/>
<polygon fill="#e9a222" stroke="#e9a222" points="555.09,-46.17 559.94,-36.33 555.27,-41.17 555.44,-36.18 555.44,-36.18 555.44,-36.18 555.27,-41.17 550.95,-36.02 555.09,-46.17 555.09,-46.17"/>
</g>
<!-- User&#45;&gt;Message -->
<g id="edge18" class="edge">
<title>User&#45;&gt;Message</title>
<path fill="none" stroke="#58a81f" d="M425,-218.87C429.42,-229.28 434.5,-241.28 438.93,-251.74"/>
<polygon fill="#58a81f" stroke="#58a81f" points="424.92,-218.68 425.17,-207.71 422.97,-214.07 421.02,-209.47 421.02,-209.47 421.02,-209.47 422.97,-214.07 416.88,-211.22 424.92,-218.68 424.92,-218.68"/>
<polygon fill="#58a81f" stroke="#58a81f" points="439.04,-252 438.79,-262.96 440.99,-256.6 442.94,-261.21 442.94,-261.21 442.94,-261.21 440.99,-256.6 447.08,-259.45 439.04,-252 439.04,-252"/>
<text text-anchor="middle" x="474.55" y="-231.8" font-family="Times,serif" font-size="14.00">sent_messages</text>
</g>
<!-- User&#45;&gt;Message -->
<g id="edge19" class="edge">
<title>User&#45;&gt;Message</title>
<path fill="none" stroke="#0054e3" d="M451.62,-194.9C475.14,-198.26 503.78,-206.82 519.05,-228 530.03,-243.23 513.16,-255.65 493.37,-264.3"/>
<polygon fill="#0054e3" stroke="#0054e3" points="451.51,-194.88 442.1,-189.25 446.54,-194.3 441.57,-193.72 441.57,-193.72 441.57,-193.72 446.54,-194.3 441.05,-198.19 451.51,-194.88 451.51,-194.88"/>
<polygon fill="#0054e3" stroke="#0054e3" points="493.12,-264.4 482.16,-263.94 488.48,-266.26 483.84,-268.12 483.84,-268.12 483.84,-268.12 488.48,-266.26 485.51,-272.3 493.12,-264.4 493.12,-264.4"/>
<text text-anchor="middle" x="574.55" y="-231.8" font-family="Times,serif" font-size="14.00">received_messages</text>
</g>
<!-- User&#45;&gt;Post -->
<g id="edge21" class="edge">
<title>User&#45;&gt;Post</title>
<path fill="none" stroke="#64541e" d="M377.4,-185.63C349.62,-180.59 311.06,-171.44 280.05,-156 270.42,-151.21 270.43,-146.26 261.05,-141 242.03,-130.35 219.14,-121.8 200.59,-115.82"/>
<polygon fill="#64541e" stroke="#64541e" points="377.62,-185.67 386.71,-191.81 382.55,-186.52 387.48,-187.37 387.48,-187.37 387.48,-187.37 382.55,-186.52 388.24,-182.94 377.62,-185.67 377.62,-185.67"/>
<polygon fill="#64541e" stroke="#64541e" points="200.34,-115.74 192.13,-108.47 195.56,-114.25 190.79,-112.76 190.79,-112.76 190.79,-112.76 195.56,-114.25 189.45,-117.06 200.34,-115.74 200.34,-115.74"/>
<text text-anchor="middle" x="317.05" y="-144.8" font-family="Times,serif" font-size="14.00">reacted_posts</text>
</g>
<!-- User&#45;&gt;Report -->
<g id="edge25" class="edge">
<title>User&#45;&gt;Report</title>
<path fill="none" stroke="#551d81" d="M440.9,-172.44C458.12,-160.63 478.9,-146.54 488.05,-141 498.4,-134.74 509.95,-128.34 520.41,-122.75"/>
<polygon fill="#551d81" stroke="#551d81" points="440.55,-172.69 429.76,-174.65 436.43,-175.52 432.31,-178.36 432.31,-178.36 432.31,-178.36 436.43,-175.52 434.86,-182.06 440.55,-172.69 440.55,-172.69"/>
<polygon fill="#551d81" stroke="#551d81" points="520.42,-122.75 531.36,-122.06 524.84,-120.41 529.26,-118.08 529.26,-118.08 529.26,-118.08 524.84,-120.41 527.16,-114.1 520.42,-122.75 520.42,-122.75"/>
<text text-anchor="middle" x="521.55" y="-144.8" font-family="Times,serif" font-size="14.00">sent_reports</text>
</g>
<!-- User&#45;&gt;Report -->
<g id="edge26" class="edge">
<title>User&#45;&gt;Report</title>
<path fill="none" stroke="#73a7a4" d="M450.92,-186.97C488.28,-182.03 542.34,-172.25 555.05,-156 560.09,-149.55 561.15,-141.08 560.48,-132.94"/>
<polygon fill="#73a7a4" stroke="#73a7a4" points="450.79,-186.98 440.31,-183.77 445.83,-187.61 440.87,-188.23 440.87,-188.23 440.87,-188.23 445.83,-187.61 441.43,-192.7 450.79,-186.98 450.79,-186.98"/>
<polygon fill="#73a7a4" stroke="#73a7a4" points="560.46,-132.87 563.31,-122.28 559.66,-127.93 558.86,-123 558.86,-123 558.86,-123 559.66,-127.93 554.42,-123.72 560.46,-132.87 560.46,-132.87"/>
<text text-anchor="middle" x="605.55" y="-144.8" font-family="Times,serif" font-size="14.00">received_reports</text>
</g>
<!-- User&#45;&gt;UserConversation -->
<g id="edge17" class="edge">
<title>User&#45;&gt;UserConversation</title>
<path fill="none" stroke="#7b5319" d="M451.38,-188.12C505.78,-183.53 609.86,-173.27 697.05,-156 703.41,-154.74 771.49,-135.92 822.53,-121.74"/>
<polygon fill="#7b5319" stroke="#7b5319" points="451.15,-188.14 440.81,-184.48 446.16,-188.55 441.18,-188.96 441.18,-188.96 441.18,-188.96 446.16,-188.55 441.55,-193.45 451.15,-188.14 451.15,-188.14"/>
<polygon fill="#7b5319" stroke="#7b5319" points="822.53,-121.74 833.37,-123.4 827.35,-120.4 832.17,-119.06 832.17,-119.06 832.17,-119.06 827.35,-120.4 830.96,-114.73 822.53,-121.74 822.53,-121.74"/>
</g>
<!-- User&#45;&gt;UserReaction -->
<g id="edge20" class="edge">
<title>User&#45;&gt;UserReaction</title>
<path fill="none" stroke="#9eda30" d="M376.63,-190.87C310.17,-189.92 175.11,-184.41 139.05,-156 105.26,-129.38 93.42,-78.17 89.28,-46.46"/>
<polygon fill="#9eda30" stroke="#9eda30" points="376.68,-190.88 386.63,-195.49 381.68,-190.93 386.68,-190.99 386.68,-190.99 386.68,-190.99 381.68,-190.93 386.74,-186.49 376.68,-190.88 376.68,-190.88"/>
<polygon fill="#9eda30" stroke="#9eda30" points="89.23,-46.06 92.58,-35.62 88.67,-41.09 88.11,-36.13 88.11,-36.13 88.11,-36.13 88.67,-41.09 83.64,-36.63 89.23,-46.06 89.23,-46.06"/>
</g>
<!-- UserSetting -->
<g id="node12" class="node">
<title>UserSetting</title>
<ellipse fill="none" stroke="black" cx="309.05" cy="-105" rx="51.99" ry="18"/>
<text text-anchor="middle" x="309.05" y="-101.3" font-family="Times,serif" font-size="14.00">UserSetting</text>
</g>
<!-- User&#45;&gt;UserSetting -->
<g id="edge22" class="edge">
<title>User&#45;&gt;UserSetting</title>
<path fill="none" stroke="#3758bc" d="M391.23,-169.61C381.26,-160.53 369.29,-149.99 358.05,-141 352.45,-136.53 346.34,-131.94 340.39,-127.62"/>
<polygon fill="#3758bc" stroke="#3758bc" points="391.39,-169.76 395.71,-179.84 395.07,-173.14 398.75,-176.52 398.75,-176.52 398.75,-176.52 395.07,-173.14 401.8,-173.21 391.39,-169.76 391.39,-169.76"/>
<polygon fill="#3758bc" stroke="#3758bc" points="340.01,-127.34 334.49,-117.87 335.94,-124.44 331.87,-121.53 331.87,-121.53 331.87,-121.53 335.94,-124.44 329.25,-125.19 340.01,-127.34 340.01,-127.34"/>
</g>
<!-- User&#45;&gt;ActiveStorage::Attachment -->
<g id="edge23" class="edge">
<title>User&#45;&gt;ActiveStorage::Attachment</title>
<path fill="none" stroke="#aab907" d="M409.56,-163.7C404.23,-140 392.98,-106.49 370.05,-87 344.26,-65.08 321.81,-90.96 296.05,-69 289.04,-63.03 284.33,-54.33 281.17,-45.85"/>
<polygon fill="#aab907" stroke="#aab907" points="409.63,-164.02 407.21,-174.72 410.62,-168.92 411.62,-173.82 411.62,-173.82 411.62,-173.82 410.62,-168.92 416.03,-172.93 409.63,-164.02 409.63,-164.02"/>
<polygon fill="#aab907" stroke="#aab907" points="281.13,-45.73 282.44,-34.84 279.64,-40.96 278.14,-36.18 278.14,-36.18 278.14,-36.18 279.64,-40.96 273.85,-37.53 281.13,-45.73 281.13,-45.73"/>
<text text-anchor="middle" x="446.05" y="-101.3" font-family="Times,serif" font-size="14.00">avatar_attachment</text>
</g>
<!-- User&#45;&gt;ActiveStorage::Blob -->
<g id="edge24" class="edge">
<title>User&#45;&gt;ActiveStorage::Blob</title>
<path fill="none" stroke="#65d006" d="M451.42,-189.96C510.98,-187.59 623.93,-179.98 655.05,-156 688.58,-130.17 696.55,-78.33 698.11,-46.35"/>
<polygon fill="#65d006" stroke="#65d006" points="451.29,-189.96 441.13,-185.83 446.29,-190.15 441.29,-190.33 441.29,-190.33 441.29,-190.33 446.29,-190.15 441.46,-194.83 451.29,-189.96 451.29,-189.96"/>
<polygon fill="#65d006" stroke="#65d006" points="698.11,-46.33 702.92,-36.47 698.27,-41.33 698.42,-36.33 698.42,-36.33 698.42,-36.33 698.27,-41.33 693.93,-36.19 698.11,-46.33 698.11,-46.33"/>
<text text-anchor="middle" x="724.05" y="-101.3" font-family="Times,serif" font-size="14.00">avatar_blob</text>
</g>
</g>
</svg>
